<?xml version="1.0" encoding="UTF-8" standalone="no"?>
<!-- Created with Inkscape (http://www.inkscape.org/) -->

<svg
   xmlns:dc="http://purl.org/dc/elements/1.1/"
   xmlns:cc="http://creativecommons.org/ns#"
   xmlns:rdf="http://www.w3.org/1999/02/22-rdf-syntax-ns#"
   xmlns:svg="http://www.w3.org/2000/svg"
   xmlns="http://www.w3.org/2000/svg"
   xmlns:sodipodi="http://sodipodi.sourceforge.net/DTD/sodipodi-0.dtd"
   xmlns:inkscape="http://www.inkscape.org/namespaces/inkscape"
   width="85.995995mm"
   height="46.090786mm"
   viewBox="0 0 189.19119 101.39973"
   version="1.1"
   id="svg6420"
   inkscape:version="0.92.4 (5da689c313, 2019-01-14)"
   sodipodi:docname="icons.svg">
  <defs
     id="defs6414" />
  <sodipodi:namedview
     id="base"
     pagecolor="#ffffff"
     bordercolor="#666666"
     borderopacity="1.0"
     inkscape:pageopacity="0.0"
     inkscape:pageshadow="2"
     inkscape:zoom="1.2689249"
     inkscape:cx="100.58153"
     inkscape:cy="-2.2526768"
     inkscape:document-units="mm"
     inkscape:current-layer="layer1"
     showgrid="false"
     scale-x="2.2"
     fit-margin-top="0"
     fit-margin-left="0"
     fit-margin-right="0"
     fit-margin-bottom="0"
     inkscape:window-width="1536"
     inkscape:window-height="801"
     inkscape:window-x="-8"
     inkscape:window-y="-8"
     inkscape:window-maximized="1" />
  <metadata
     id="metadata6417">
    <rdf:RDF>
      <cc:Work
         rdf:about="">
        <dc:format>image/svg+xml</dc:format>
        <dc:type
           rdf:resource="http://purl.org/dc/dcmitype/StillImage" />
        <dc:title></dc:title>
      </cc:Work>
    </rdf:RDF>
  </metadata>
  <g
     inkscape:label="Layer 1"
     inkscape:groupmode="layer"
     id="layer1"
     transform="translate(-25.853553,-13.017107)">
    <g
       id="g3325"
       transform="matrix(0.41888667,0,0,0.41888667,128.00729,12.112056)"
       style="fill:#19647e;fill-opacity:1">
      <path
         inkscape:connector-curvature="0"
         d="m 94.8,11.8 c -0.4,-0.5 -1,-0.7 -1.6,-0.5 -1.9,0.6 -4.4,1.3 -6.3,1.9 l 1,-4.7 C 88.1,7.8 87.6,7 86.9,6.8 86.2,6.6 85.4,6.9 85.1,7.6 c -2.3,4.8 -4.5,6.5 -5,6.8 l -10.4,2.5 c -0.5,0.1 -0.9,0.5 -1.1,1 l -2.9,8.5 c 0,0.1 0,0.1 -0.1,0.2 l -0.4,2 c -0.5,-1 -1.3,-1.7 -2.4,-2.1 -1.1,-0.4 -2.3,-0.4 -3.4,0.1 L 59,26.8 c -0.4,0.2 -0.7,0.4 -1,0.7 -1.3,-1 -3,-1.3 -4.6,-0.6 l -2.1,1 c -0.8,0.3 -1.4,0.9 -1.8,1.5 -1.3,-0.8 -3,-1 -4.5,-0.3 l -1.7,0.8 c -1.1,0.5 -2,1.4 -2.4,2.5 C 39.8,32 38.5,32 37.4,32.5 l -1.7,0.8 c -1.1,0.5 -2,1.4 -2.4,2.5 -1.1,-0.4 -2.3,-0.4 -3.5,0.1 l -1.7,0.8 c -1.1,0.5 -2,1.4 -2.4,2.5 -1.1,-0.4 -2.4,-0.4 -3.5,0.1 l -1.7,0.8 c -1.2,0.5 -2,1.5 -2.5,2.6 -0.2,0.5 -0.3,0.9 -0.3,1.4 -0.6,0 -1.2,0.1 -1.8,0.4 l -1.3,0.6 c -2.9,1.3 -4.2,4.6 -3,7.5 -0.2,0.1 -0.4,0.1 -0.6,0.2 C 9.8,53.4 8.8,54.4 8.3,55.6 8.1,56.2 8,57 8.1,57.7 6.5,59.3 4,62.1 5,64.4 c 0.7,1.5 2.4,1.9 4.4,1.9 0.8,0 1.6,-0.1 2.5,-0.2 0.5,0.6 1.2,1 1.9,1.3 0.6,0.2 1.2,0.3 1.8,0.3 0.7,0 1.4,-0.1 2.1,-0.4 0.2,-0.1 0.4,-0.2 0.6,-0.3 0.6,1.4 1.8,2.4 3.2,3 0.7,0.3 1.4,0.4 2.1,0.4 0.8,0 1.6,-0.2 2.4,-0.5 l 1.2,-0.5 c 0.6,-0.3 1.1,-0.7 1.5,-1.1 0.4,0.3 0.7,0.5 1.2,0.7 0.5,0.2 1.1,0.3 1.7,0.3 0.1,0 0.2,0 0.3,0 0.1,0.6 0.3,1.2 0.6,1.8 -0.5,0.3 -0.9,0.8 -1.3,1.3 l -0.7,1.2 c -0.8,1.3 -1,2.9 -0.7,4.3 0.3,1.5 1.2,2.7 2.5,3.5 -0.1,0.2 -0.3,0.3 -0.4,0.5 -0.7,1.2 -0.9,2.5 -0.6,3.8 0.2,0.8 0.6,1.5 1.1,2.1 -0.5,2.2 -1,6 1.2,7.3 0.5,0.3 1,0.4 1.5,0.4 1.7,0 3.6,-1.4 5.2,-2.8 0.4,0.1 0.8,0.1 1.2,0.1 1.7,0 3.4,-0.9 4.3,-2.4 0.1,-0.2 0.2,-0.4 0.3,-0.6 0.9,0.5 1.9,0.8 3,0.8 0.5,0 0.9,-0.1 1.4,-0.2 1.5,-0.4 2.8,-1.3 3.6,-2.6 l 0.7,-1.1 c 0.3,-0.5 0.5,-1.2 0.6,-1.8 0.1,0 0.2,0 0.2,0 0.4,0 0.7,0 1.1,-0.1 1.2,-0.3 2.3,-1 2.9,-2.1 l 1,-1.6 c 0.6,-1 0.8,-2.2 0.6,-3.4 1.1,-0.3 2.1,-1 2.8,-2.1 L 65,74 c 0.6,-1 0.8,-2.2 0.6,-3.4 1.1,-0.3 2.1,-1 2.8,-2.1 l 1,-1.6 c 0.6,-1 0.8,-2.2 0.6,-3.4 1.2,-0.3 2.2,-1 2.8,-2.1 l 1,-1.6 c 0,0 0,0 0,0 0.9,-1.4 0.9,-3.2 0.2,-4.6 0.7,-0.4 1.2,-0.9 1.7,-1.6 l 1.2,-2 c 0,0 0,0 0,0 0.9,-1.5 0.8,-3.2 0,-4.6 0.3,-0.3 0.6,-0.6 0.9,-0.9 L 78,45.7 c 0,0 0,0 0,0 1.2,-1.9 0.7,-4.3 -0.9,-5.7 l 5.7,-2.2 c 0.5,-0.2 0.8,-0.6 0.9,-1.1 l 1.5,-7.4 c 0.8,-0.4 1.6,-0.7 2.4,-0.9 l 5.8,-1.5 c 0.6,-0.2 1.1,-0.7 1.1,-1.4 0,-0.7 -0.4,-1.3 -1,-1.5 l -4.2,-1.6 5.8,-9 c 0.1,-0.4 0.1,-1.1 -0.3,-1.6 z m -23.7,7.8 9.8,-2.4 c 0.1,0 0.2,-0.1 0.3,-0.1 0.2,-0.1 1,-0.5 2.1,-1.6 l -0.4,2 -3.4,2.3 c -0.4,-0.1 -0.8,-0.1 -1.2,0.1 l -5.1,2.8 C 73,22.8 72.9,22.9 72.8,23 l -4.5,5.2 0.2,-0.9 z M 33.8,67.1 v 0 L 33.6,67 Z M 62.5,34.7 c 0,0 0,0 0,0 l 0.1,0.1 c 0.1,0 0.1,0.1 0.1,0.1 0.2,0.2 0.3,0.6 0.1,0.9 l -0.6,1 c -0.1,0.2 -0.3,0.3 -0.6,0.3 -0.1,0 -0.3,0 -0.4,-0.1 L 60,36.2 c 0,0 0,0 0,0 L 59.7,36 c 0,0 0,0 0,0 -0.2,-0.1 -0.3,-0.3 -0.3,-0.5 0,-0.1 0,-0.1 0,-0.2 0,0 0,-0.1 0,-0.1 0,0 0,-0.1 0.1,-0.2 l 0.2,-0.3 c 0.1,-0.1 0.2,-0.2 0.3,-0.3 0.1,-0.1 0.2,-0.1 0.3,-0.2 0.5,-0.3 1.1,-0.3 1.5,0 z m 6.8,4.2 c 0.4,0.3 0.5,0.8 0.3,1.2 l -0.4,0.7 c -0.1,0.1 -0.2,0.2 -0.3,0.3 -0.3,0.2 -0.7,0.2 -1,0 0,0 0,0 0,0 L 66.1,40 c 0,0 -0.1,0 -0.1,-0.1 l -0.3,-0.2 c 0,0 0,0 0,0 -0.1,0 -0.1,-0.1 -0.2,-0.1 0,0 -0.1,-0.1 -0.1,-0.1 0,-0.1 -0.1,-0.1 -0.1,-0.2 0,0 0,-0.1 -0.1,-0.1 0,-0.1 0,-0.2 0,-0.2 0,0 0,-0.1 0,-0.1 0,-0.1 0.1,-0.2 0.1,-0.3 l 0.4,-0.7 c 0,-0.1 0.1,-0.1 0.2,-0.2 0.2,-0.2 0.5,-0.3 0.7,-0.2 0.1,0 0.2,0.1 0.3,0.1 z m -24,41.3 c 0.1,0.4 0,0.9 -0.2,1.3 l -1,1.6 c -0.2,0.4 -0.6,0.7 -1.1,0.8 -0.4,0.1 -0.9,0 -1.3,-0.2 v 0 l -2.2,-1.4 c -0.8,-0.5 -1.1,-1.6 -0.6,-2.4 l 1,-1.6 c 0.2,-0.4 0.6,-0.7 1.1,-0.8 0.1,0 0.3,0 0.4,0 0.3,0 0.6,0.1 0.9,0.3 l 2.2,1.4 c 0.4,0.2 0.7,0.5 0.8,1 z M 35.5,70 c -0.8,-0.5 -1,-1.5 -0.6,-2.3 0,0 0,-0.1 0.1,-0.1 v 0 L 36,66 c 0.2,-0.3 0.5,-0.6 0.9,-0.7 0.1,-0.1 0.3,-0.1 0.5,-0.1 0.4,0 0.7,0.1 1,0.3 l 2.2,1.3 c 0.8,0.5 1.1,1.6 0.6,2.4 0,0 0,0 0,0 l -1,1.6 c -0.2,0.4 -0.6,0.7 -1.1,0.8 -0.4,0.1 -0.9,0 -1.3,-0.2 l -0.9,-0.5 c 0,0 0,0 0,0 z M 22.3,59.8 20.6,60.6 c -0.9,0.4 -1.9,0 -2.3,-0.9 L 17.2,57.3 C 17,56.9 17,56.4 17.2,56 c 0.2,-0.4 0.5,-0.8 0.9,-1 l 1.7,-0.8 c 0.4,-0.2 0.9,-0.2 1.3,0 0.4,0.2 0.8,0.5 1,0.9 l 1.1,2.4 c 0.3,0.9 -0.1,1.9 -0.9,2.3 z m 2.5,-5.9 c -0.2,-0.4 -0.2,-0.9 0,-1.3 0.2,-0.4 0.5,-0.8 0.9,-1 l 1.7,-0.8 c 0.2,-0.1 0.5,-0.2 0.7,-0.2 0.2,0 0.4,0 0.6,0.1 0.4,0.2 0.8,0.5 1,0.9 l 1.1,2.4 c 0.4,0.9 0,1.9 -0.9,2.3 l -1.7,0.8 c -0.9,0.4 -1.9,0 -2.3,-0.9 z M 48,41.7 c 0.1,-0.1 0.3,-0.2 0.5,-0.3 l 1.7,-0.8 c 0.1,0 0.1,-0.1 0.2,-0.1 0,0.1 0,0.3 0,0.4 0,0 0,0 0,0 0,0 0,0 -0.1,0 -0.2,0 -0.5,0.1 -0.7,0.1 -0.1,0 -0.1,0 -0.2,0 -0.3,0.1 -0.5,0.1 -0.7,0.3 0,0 0,0 0,0 -0.3,0.2 -0.5,0.3 -0.7,0.4 z m 13.8,1.1 c 0.3,-0.4 0.7,-0.7 1.2,-0.8 0,0 0.1,0 0.1,0 0.1,0 0.3,0 0.4,0 0.1,0 0.1,0 0.2,0 0.2,0 0.3,0.1 0.4,0.2 0,0 0,0 0,0 0,0 0,0 0,0 l 0.4,0.2 c 0,0 0.1,0 0.1,0.1 l 1.7,1.1 c 0,0 0,0 0,0 0.1,0 0.1,0.1 0.2,0.1 0,0 0.1,0.1 0.1,0.1 0,0 0.1,0.1 0.1,0.1 0,0 0.1,0.1 0.1,0.1 0,0.1 0.1,0.1 0.1,0.2 0,0 0,0.1 0.1,0.1 0,0.1 0,0.1 0.1,0.2 0,0 0,0.1 0,0.1 0,0.1 0,0.1 0,0.2 0,0.1 0,0.1 0,0.2 0,0.1 0,0.1 0,0.2 0,0.1 0,0.1 0,0.2 0,0.1 0,0.2 -0.1,0.2 0,0 0,0.1 0,0.1 0,0.1 -0.1,0.2 -0.1,0.3 l -0.3,0.5 -0.1,0.2 c 0,0 0,0.1 -0.1,0.1 L 66,47.6 c -0.1,0.2 -0.3,0.4 -0.6,0.6 -0.6,0.3 -1.2,0.3 -1.8,0 0,0 0,0 0,0 l -2.2,-1.4 c -0.2,-0.1 -0.3,-0.2 -0.4,-0.3 -0.2,-0.3 -0.4,-0.6 -0.4,-1 0,-0.1 0,-0.2 0,-0.2 0,0 0,-0.1 0,-0.1 0,-0.3 0.1,-0.5 0.2,-0.7 z m -12.5,1.7 c 0.1,-0.1 0.1,-0.1 0,0 0.2,-0.1 0.2,-0.2 0.3,-0.3 0,0 0.1,0 0.1,-0.1 C 49.8,44 49.9,44 50,44 c 0,0 0,0 0.1,0 0.1,0 0.3,0 0.4,0 0,0 0.1,0 0.1,0 0.1,0 0.2,0 0.3,0 0,0 0.1,0 0.1,0 0.1,0 0.3,0.1 0.4,0.2 l 1,0.6 c 0,0 0.1,0 0.1,0.1 l 1.2,0.8 c 0.1,0.1 0.2,0.2 0.3,0.3 0.4,0.5 0.5,1.1 0.4,1.6 0,0 0,0 0,0.1 0,0.1 -0.1,0.2 -0.2,0.4 l -1,1.6 c -0.5,0.8 -1.6,1.1 -2.5,0.5 L 48.5,48.9 C 48.4,48.8 48.3,48.7 48.2,48.6 47.7,48 47.6,47.2 48,46.5 l 1,-1.6 c 0.1,-0.2 0.2,-0.3 0.3,-0.4 z m 3.9,8.7 c 0,0.1 0,0.1 0,0.2 -0.1,0 -0.1,0 -0.2,0.1 0,-0.1 0,-0.1 0,-0.2 0.1,-0.1 0.2,-0.1 0.2,-0.1 z M 45,51.5 c 0,0 0.1,-0.1 0.1,-0.1 0.1,-0.1 0.2,-0.1 0.3,-0.2 0.1,0 0.1,-0.1 0.2,-0.1 0.1,0 0.2,0 0.3,-0.1 0.1,0 0.1,0 0.2,0 0.1,0 0.1,0 0.2,0 0.1,0 0.3,0 0.4,0.1 0.1,0 0.2,0.1 0.3,0.2 l 2.2,1.4 c 0.7,0.5 1,1.4 0.6,2.2 0,0.1 -0.1,0.1 -0.1,0.2 v 0 l -1,1.6 c -0.2,0.4 -0.6,0.7 -1.1,0.8 -0.4,0.1 -0.9,0 -1.3,-0.2 l -2.2,-1.4 c 0,0 0,0 0,0 v 0 c -0.2,-0.1 -0.4,-0.3 -0.5,-0.5 -0.4,-0.5 -0.4,-1.3 0,-1.8 l 1,-1.6 c 0.2,-0.3 0.3,-0.4 0.4,-0.5 z m -0.5,16.1 c -0.1,0 -0.1,0 -0.2,0.1 0,-0.1 0,-0.1 0,-0.2 0.1,0 0.1,0 0.2,-0.1 0,0 0,0.1 0,0.2 z M 40,63 v 0 c -0.1,-0.1 -0.2,-0.1 -0.3,-0.2 0,0 -0.1,0 -0.1,-0.1 -0.1,-0.1 -0.1,-0.1 -0.2,-0.2 0,0 0,-0.1 -0.1,-0.1 -0.1,-0.1 -0.1,-0.2 -0.1,-0.2 0,0 0,0 0,0 0,-0.1 -0.1,-0.2 -0.1,-0.3 -0.1,-0.4 0,-0.9 0.2,-1.3 l 1,-1.6 c 0.1,-0.2 0.2,-0.3 0.3,-0.4 0,0 0.1,-0.1 0.1,-0.1 0.1,-0.1 0.2,-0.1 0.3,-0.2 0.1,0 0.1,-0.1 0.2,-0.1 0.1,0 0.2,-0.1 0.3,-0.1 0.1,0 0.1,0 0.2,0 0.2,0 0.3,0 0.5,0.1 0,0 0,0 0,0 0.2,0 0.3,0.1 0.4,0.2 l 2.2,1.4 c 0.4,0.3 0.7,0.7 0.8,1.3 0,0 0,0 0,0 0.1,0.4 0,0.8 -0.2,1.1 l -1,1.6 c -0.2,0.4 -0.6,0.7 -1.1,0.8 -0.5,0.1 -0.9,0 -1.3,-0.2 z m -3.6,-4.9 c 0.2,-0.4 0.5,-0.8 0.9,-1 l 1.1,-0.5 c 0,0 0,0 0,0.1 -0.2,0.2 -0.4,0.5 -0.5,0.7 l -1,1.6 c -0.1,0.2 -0.2,0.4 -0.3,0.6 L 36.5,59.4 C 36.2,59 36.2,58.5 36.4,58.1 Z m 6.7,16 c -0.1,-0.4 0,-0.9 0.2,-1.3 l 1,-1.6 c 0.2,-0.4 0.6,-0.7 1.1,-0.8 0.1,0 0.3,0 0.4,0 0.3,0 0.6,0.1 0.9,0.3 l 2.2,1.4 v 0 c 0.4,0.2 0.7,0.6 0.8,1.1 0.1,0.4 0,0.9 -0.2,1.3 l -1,1.6 c -0.2,0.4 -0.6,0.7 -1.1,0.8 -0.5,0.1 -0.9,0 -1.3,-0.2 l -2.2,-1.4 c -0.5,-0.4 -0.7,-0.7 -0.8,-1.2 z m 5.6,-13.6 c 0,-0.1 0,-0.1 0,-0.2 0.1,0 0.1,0 0.2,-0.1 0,0.1 0,0.1 0,0.2 -0.1,0.1 -0.2,0.1 -0.2,0.1 z m 10.2,-19.7 -1.2,2 c -0.2,0.4 -0.6,0.6 -1.2,0.7 -0.2,0 -0.4,0 -0.7,-0.1 0,0 -0.1,0 -0.1,0 l -0.3,-0.2 c 0,0 -0.1,0 -0.1,-0.1 l -1.2,-0.7 c 0,0 0,0 0,0 0,0 0,0 0,0 0,0 0,0 -0.1,0 -0.7,-0.4 -0.9,-1.4 -0.5,-2 l 1.2,-2 c 0.3,-0.5 0.9,-0.8 1.6,-0.7 0.2,0 0.3,0.1 0.5,0.2 l 1.1,0.7 c 0,0 0,0 0.1,0 l 0.3,0.2 c 0.8,0.4 1,1.3 0.6,2 z m -13.7,4.7 c 0,0 0,0 0,0 0,0 0,0.1 0,0.1 -0.1,0.2 -0.1,0.4 -0.2,0.6 0,0.1 0,0.2 -0.1,0.3 0,0.1 0,0.3 -0.1,0.4 0,0.1 0,0.3 0,0.4 0,0.1 0,0.2 0,0.3 0,0.1 0,0.3 0.1,0.4 0,0 0,0.1 0,0.1 -0.1,0 -0.1,0 -0.2,0.1 -0.2,0 -0.3,0.1 -0.4,0.2 -0.1,0 -0.2,0.1 -0.3,0.1 -0.1,0.1 -0.3,0.2 -0.4,0.3 -0.1,0.1 -0.2,0.1 -0.3,0.2 -0.1,0.1 -0.3,0.2 -0.4,0.4 -0.1,0.1 -0.1,0.1 -0.2,0.2 -0.2,0.2 -0.4,0.4 -0.5,0.7 l -0.1,0.1 c -0.4,-0.2 -0.8,-0.5 -1,-0.9 L 40,47.1 c -0.2,-0.4 -0.2,-0.9 0,-1.3 0.2,-0.4 0.5,-0.8 0.9,-1 L 42.6,44 c 0.2,-0.1 0.5,-0.2 0.7,-0.2 0.2,0 0.4,0 0.6,0.1 0.4,0.2 0.8,0.5 1,0.9 z m -12.8,5 c -0.4,-0.9 0,-1.9 0.9,-2.3 L 35,47.4 c 0.2,-0.1 0.5,-0.2 0.7,-0.2 0.2,0 0.4,0 0.6,0.1 0.4,0.2 0.8,0.5 1,0.9 l 1.1,2.4 c 0.2,0.4 0.2,0.9 0,1.3 -0.2,0.4 -0.5,0.8 -0.9,1 l -1.7,0.8 c -0.9,0.4 -1.9,0 -2.3,-0.9 z m 18.1,19 v 0 c 0,0 0,0 0,0 v 0 l -2.2,-1.4 c -0.4,-0.2 -0.7,-0.6 -0.8,-1.1 -0.1,-0.4 0,-0.9 0.2,-1.3 l 1,-1.6 c 0.2,-0.4 0.6,-0.7 1.1,-0.8 0.1,0 0.3,0 0.4,0 0.3,0 0.6,0.1 0.9,0.3 l 2.2,1.4 c 0.8,0.5 1.1,1.6 0.6,2.4 0,0 0,0 0,0 l -1,1.6 c -0.6,0.7 -1.6,1 -2.4,0.5 z M 54.8,62.4 52.6,61 c -0.5,-0.3 -0.8,-0.9 -0.8,-1.5 0,-0.3 0.1,-0.6 0.3,-0.9 l 0.8,-1.3 c 0,0 0,0 0,0 L 53,57.1 c 0,0 0,-0.1 0.1,-0.1 0.2,-0.3 0.5,-0.5 0.8,-0.7 0.5,-0.2 1.1,-0.2 1.6,0.1 0,0 0,0 0,0 l 2.2,1.4 c 0.8,0.5 1.1,1.6 0.6,2.4 l -1,1.6 c -0.2,0.4 -0.6,0.7 -1.1,0.8 -0.5,0.1 -1,0 -1.4,-0.2 z M 59.2,55.3 57,53.9 c -0.4,-0.2 -0.7,-0.6 -0.8,-1.1 -0.1,-0.5 0,-0.9 0.2,-1.3 l 1,-1.6 c 0.1,-0.1 0.2,-0.3 0.3,-0.3 0,0 0.1,-0.1 0.1,-0.1 0.1,-0.1 0.2,-0.2 0.4,-0.2 0.1,-0.1 0.3,-0.1 0.4,-0.1 0,0 0.1,0 0.1,0 0.1,0 0.2,0 0.3,0 0.1,0 0.2,0 0.2,0 0.1,0 0.1,0 0.2,0 0.1,0 0.2,0.1 0.3,0.1 0,0 0.1,0 0.1,0 l 2.2,1.4 c 0,0 0,0 0,0 0.4,0.2 0.7,0.6 0.8,1.1 0.1,0.4 0,0.9 -0.2,1.2 0,0 0,0 0,0 l -1,1.6 c -0.2,0.4 -0.6,0.7 -1.1,0.8 -0.4,0.2 -0.9,0.1 -1.3,-0.1 z M 44.9,41 c 0,0.1 -0.1,0.1 -0.1,0.2 -0.1,0 -0.1,0 -0.2,-0.1 0,-0.1 0.1,-0.1 0.1,-0.2 0.1,0 0.2,0.1 0.2,0.1 z m -7.6,3.4 c 0,0.1 -0.1,0.1 -0.1,0.2 -0.1,0 -0.1,0 -0.2,-0.1 0,-0.1 0.1,-0.1 0.1,-0.2 0.1,0 0.2,0 0.2,0.1 z m -7.6,3.4 c 0,0.1 -0.1,0.1 -0.1,0.2 -0.1,0 -0.1,0 -0.2,-0.1 0,-0.1 0.1,-0.1 0.1,-0.2 0.1,0 0.2,0.1 0.2,0.1 z M 25.9,60 c 0,0 0,0 0,0 0,0 0,0 0,0 0,0 0,0 0,0 z m 7.5,-3.2 c 0,-0.1 0.1,-0.1 0.1,-0.2 0.1,0 0.1,0.1 0.2,0.1 0,0.1 -0.1,0.1 -0.1,0.2 0,-0.1 -0.1,-0.1 -0.2,-0.1 z m 1,16.5 c 0.1,0 0.2,0 0.3,0 0.2,0 0.4,0.1 0.6,0.2 l 0.9,0.5 c 0,0 0,0 0,0 l 0.5,0.3 c 0.6,0.3 0.7,1.1 0.4,1.6 l -1.6,2.5 c -0.2,0.3 -0.4,0.5 -0.7,0.5 -0.3,0.1 -0.6,0 -0.9,-0.1 C 32.6,78 32.2,76.3 33,75 l 0.7,-1.2 c 0.1,-0.2 0.4,-0.4 0.7,-0.5 z m 0.6,13 C 34.5,86 34.2,85.5 34,85 33.8,84.5 34,83.9 34.3,83.4 34.5,83 35,82.9 35.4,83.1 l 1.6,1 c 0.4,0.2 0.5,0.7 0.3,1.1 l -0.7,1.1 c -0.2,0.4 -0.7,0.5 -1.1,0.3 z M 52.6,72.8 c 0,-0.1 0,-0.1 0,-0.2 0.1,0 0.1,0 0.2,-0.1 0,0.1 0,0.1 0,0.2 0,0 -0.1,0 -0.2,0.1 z M 57,65.7 c 0,-0.1 0,-0.1 0,-0.2 0.1,0 0.1,0 0.2,-0.1 0,0.1 0,0.1 0,0.2 -0.1,0 -0.1,0 -0.2,0.1 z m 4.4,-7.1 c 0,-0.1 0,-0.1 0,-0.2 0.1,0 0.1,0 0.2,-0.1 0,0.1 0,0.1 0,0.2 -0.1,0 -0.2,0 -0.2,0.1 z m 13.7,-14.4 -0.2,0.4 c -0.2,0.3 -0.6,0.4 -1,0.2 0,0 -0.1,0 -0.1,-0.1 l -0.2,-0.1 c 0,0 0,0 0,0 l -1.2,-0.8 c -0.3,-0.2 -0.5,-0.7 -0.2,-1 l 0.6,-1 c 0.2,-0.3 0.6,-0.5 1,-0.2 l 0.9,0.6 c 0.6,0.4 0.8,1.3 0.4,2 z M 60.3,29.4 60.7,29.2 c 0.7,-0.3 1.6,0 1.9,0.7 l 0.5,1.1 c 0.1,0.2 0.1,0.4 0,0.5 -0.1,0 -0.1,-0.1 -0.2,-0.1 -0.1,0 -0.2,-0.1 -0.3,-0.1 -0.1,0 -0.2,-0.1 -0.3,-0.1 -0.1,0 -0.2,-0.1 -0.3,-0.1 -0.1,0 -0.2,0 -0.3,-0.1 -0.1,0 -0.2,0 -0.3,-0.1 -0.1,0 -0.2,0 -0.3,0 -0.1,0 -0.2,0 -0.3,0 0,0 0,0 0,0 0,0 -0.1,0 -0.1,0 -0.2,0 -0.4,0 -0.5,0 0,0 0,0 -0.1,0 L 60,30.4 c 0,0 0,-0.1 0,-0.1 -0.2,-0.3 -0.1,-0.7 0.3,-0.9 z m -7.8,1.1 2.1,-1 c 0.8,-0.3 1.6,0 2,0.8 l 0.5,1.2 c 0,0 0,0.1 0,0.1 l 0.2,0.4 c 0.1,0.2 0.1,0.4 0.1,0.6 0,0 0,0 0,0 -0.1,0.2 -0.3,0.3 -0.4,0.5 l -0.2,0.3 c -0.1,0.1 -0.2,0.3 -0.2,0.5 0,0 0,0 -0.1,0 l -2.1,1 c -0.8,0.3 -1.6,0 -2,-0.8 l -0.1,-0.3 c 0,0 0,0 0,0 l -0.6,-1.4 c -0.3,-0.7 0.1,-1.6 0.8,-1.9 z m -8,2 1.7,-0.8 c 0.2,-0.1 0.5,-0.2 0.7,-0.2 0.7,0 1.3,0.4 1.6,1 l 0.5,1 c 0,0 0,0 0,0 0,0 0,0.1 0,0.1 0,0 0,0 0,0 v 0 l 0.6,1.3 c 0,0 0,0 0,0 0.2,0.4 0.2,0.8 0,1.2 -0.2,0.4 -0.5,0.8 -0.9,1 L 47,38 c -0.9,0.4 -1.9,0 -2.3,-0.9 l -1.1,-2.4 c -0.4,-0.8 0,-1.8 0.9,-2.2 z M 36,36.8 c 0.2,-0.4 0.5,-0.8 0.9,-1 L 38.6,35 c 0.4,-0.2 0.9,-0.2 1.3,0 0.4,0.2 0.8,0.5 1,0.9 l 1.1,2.4 c 0.4,0.9 0,1.9 -0.9,2.3 l -1.7,0.8 c -0.4,0.2 -0.9,0.2 -1.3,0 -0.4,-0.2 -0.8,-0.5 -1,-0.9 L 36,38.2 c -0.2,-0.5 -0.2,-0.9 0,-1.4 z m -6.7,2.5 1.7,-0.8 c 0.2,-0.1 0.5,-0.2 0.7,-0.2 0.7,0 1.3,0.4 1.6,1 l 1.1,2.4 c 0.2,0.4 0.2,0.9 0,1.3 -0.2,0.4 -0.5,0.8 -0.9,1 l -1.7,0.8 c -0.4,0.2 -0.9,0.2 -1.3,0 -0.4,-0.2 -0.8,-0.5 -1,-0.9 0,0 0,0 0,0 l -1.1,-2.4 c -0.4,-0.8 0,-1.8 0.9,-2.2 z m -8.5,4.3 c 0.2,-0.4 0.5,-0.8 0.9,-1 l 1.7,-0.8 c 0.2,-0.1 0.5,-0.2 0.7,-0.2 0.2,0 0.4,0 0.6,0.1 0.4,0.2 0.8,0.5 1,0.9 l 1.1,2.4 c 0.4,0.9 0,1.9 -0.9,2.3 l -1.7,0.8 c -0.9,0.4 -1.9,0 -2.3,-0.9 L 20.8,45 c -0.2,-0.5 -0.2,-0.9 0,-1.4 z m -6.4,5.6 c 0.3,-0.7 0.8,-1.2 1.4,-1.5 l 1.3,-0.6 c 0.3,-0.1 0.6,-0.1 0.9,0 0.3,0.1 0.5,0.3 0.7,0.6 l 0.6,1.4 c 0.1,0.3 0.1,0.6 0,0.9 -0.1,0.3 -0.3,0.5 -0.6,0.7 L 16,51.9 c -0.3,0.1 -0.6,0.1 -0.9,0 -0.3,-0.1 -0.5,-0.3 -0.7,-0.6 -0.2,-0.7 -0.2,-1.5 0,-2.1 z m -3.2,7.3 c 0.2,-0.5 0.6,-0.9 1.1,-1.2 0.4,-0.2 0.8,0 1,0.4 l 0.8,1.7 c 0.1,0.2 0.1,0.4 0,0.6 -0.1,0.2 -0.2,0.3 -0.4,0.4 l -1.2,0.5 c -0.4,0.2 -0.8,0 -1,-0.4 L 11.3,58 C 11,57.6 11,57 11.2,56.5 Z m -3.4,6.6 c 0.1,-0.5 0.7,-1.4 1.6,-2.4 0.4,0.4 0.8,0.7 1.3,0.9 -0.2,0.5 -0.2,1.1 -0.1,1.6 -1.9,0.2 -2.6,0 -2.8,-0.1 z m 9.1,1.1 c -0.1,0.2 -0.2,0.3 -0.4,0.4 -0.5,0.2 -1.1,0.2 -1.6,0 C 14.4,64.4 14,64 13.7,63.5 L 13.5,63 c -0.1,-0.2 -0.1,-0.4 0,-0.6 0.1,-0.2 0.2,-0.3 0.4,-0.4 l 1.2,-0.5 c 0.2,-0.1 0.4,-0.1 0.6,0 0.2,0.1 0.3,0.2 0.4,0.4 l 0.8,1.7 c 0.1,0.2 0.1,0.4 0,0.6 z m 9.6,1.8 c -0.1,0.3 -0.3,0.5 -0.6,0.7 l -1.2,0.5 c -0.7,0.3 -1.5,0.3 -2.2,0.1 -0.7,-0.3 -1.3,-0.8 -1.6,-1.5 -0.1,-0.3 -0.1,-0.6 0,-0.9 0.1,-0.3 0.3,-0.6 0.6,-0.7 L 24.1,63 c 0.2,-0.1 0.3,-0.1 0.5,-0.1 0.5,0 0.9,0.3 1.1,0.7 l 0.2,0.5 c 0,0 0,0 0,0 l 0.4,1 c 0.3,0.2 0.4,0.6 0.2,0.9 z m 4.3,0.1 C 30.4,65.9 30,65.6 29.8,65.2 L 29,63.4 28.8,62.9 c 0,0 0,-0.1 0,-0.1 -0.4,-0.9 0,-1.9 0.9,-2.3 l 1.7,-0.8 c 0.4,-0.2 0.9,-0.2 1.3,0 0.4,0.2 0.8,0.5 1,0.9 l 1.1,2.4 c 0,0 0,0 0,0.1 0,0 -0.1,0.1 -0.1,0.1 -0.2,0.1 -0.3,0.3 -0.5,0.4 -0.1,0.1 -0.1,0.1 -0.2,0.2 -0.2,0.2 -0.4,0.5 -0.6,0.7 l -0.9,1.4 -0.4,0.2 c -0.4,0.2 -0.8,0.2 -1.3,0 z m 4.1,23.4 c 0.3,0.1 0.6,0.1 0.9,0.1 0.2,0 0.5,0 0.7,-0.1 0.2,0.5 0.4,1 0.8,1.4 -1.4,1.1 -2.1,1.3 -2.4,1.4 -0.1,-0.3 -0.1,-1.5 0,-2.8 z M 43,88.8 c -0.6,1 -1.9,1.3 -2.9,0.7 L 39.6,89.2 C 39.2,89 39.1,88.5 39.3,88.1 L 40,87 c 0.2,-0.4 0.7,-0.5 1.1,-0.3 l 1.6,1 c 0.5,0.2 0.6,0.7 0.3,1.1 z m 8.9,-3.7 -0.7,1.1 c -0.4,0.6 -1,1.1 -1.8,1.3 -0.7,0.2 -1.5,0.1 -2.1,-0.3 0,0 0,0 0,0 -0.3,-0.2 -0.5,-0.4 -0.6,-0.8 -0.1,-0.3 0,-0.7 0.1,-0.9 l 1.5,-2.4 c 0.2,-0.4 0.6,-0.6 1.1,-0.6 0.2,0 0.4,0.1 0.6,0.2 l 0.4,0.3 c 0,0 0,0 0,0 l 0.9,0.6 c 0.3,0.2 0.5,0.4 0.6,0.8 0.2,0.1 0.2,0.4 0,0.7 z m 5.9,-5.6 -1,1.6 c -0.5,0.8 -1.6,1.1 -2.4,0.6 l -1.3,-0.8 c 0,0 0,0 0,0 l -0.9,-0.6 c -0.4,-0.2 -0.7,-0.6 -0.8,-1.1 -0.1,-0.4 0,-0.9 0.2,-1.3 l 1,-1.6 c 0.2,-0.4 0.6,-0.7 1.1,-0.8 0.4,-0.1 0.9,0 1.3,0.2 l 2.2,1.4 c 0.4,0.2 0.7,0.6 0.8,1.1 0.1,0.5 0,0.9 -0.2,1.3 z m 4.3,-7.1 -1,1.6 c -0.5,0.8 -1.6,1.1 -2.4,0.6 l -2.2,-1.4 c -0.4,-0.2 -0.7,-0.6 -0.8,-1.1 -0.1,-0.4 0,-0.9 0.2,-1.3 l 1,-1.6 c 0.5,-0.8 1.6,-1.1 2.4,-0.6 l 2.2,1.4 c 0.4,0.2 0.7,0.6 0.8,1.1 0.2,0.5 0.1,0.9 -0.2,1.3 z m 4.4,-7.1 -1,1.6 C 65,67.7 64,68 63.2,67.5 L 61,66.1 c -0.4,-0.2 -0.7,-0.6 -0.8,-1.1 -0.1,-0.4 0,-0.9 0.2,-1.3 l 1,-1.6 c 0.2,-0.4 0.6,-0.7 1.1,-0.8 0.5,-0.1 0.9,0 1.3,0.2 v 0 c 0,0 0,0 0,0 l 0.3,0.2 1.9,1.3 c 0.4,0.2 0.7,0.6 0.8,1.1 0,0.4 0,0.8 -0.3,1.2 z m 4.4,-7.1 -1,1.6 c -0.2,0.4 -0.6,0.7 -1.1,0.8 -0.4,0.1 -0.9,0 -1.3,-0.2 L 65.7,59.3 65.3,59 c 0,0 0,0 0,0 -0.4,-0.2 -0.7,-0.6 -0.8,-1.1 -0.1,-0.4 0,-0.9 0.2,-1.3 l 1,-1.6 c 0.3,-0.5 0.9,-0.8 1.5,-0.8 0.3,0 0.6,0.1 0.9,0.2 l 1.1,0.7 v 0 c 0,0 0.1,0 0.1,0.1 l 1.1,0.7 c 0.7,0.5 1,1.5 0.5,2.3 z m 3.1,-8.1 -1.2,2 c -0.4,0.7 -1.3,0.9 -2,0.5 0,0 -0.1,0 -0.1,-0.1 l -1.3,-0.8 c -0.7,-0.4 -0.9,-1.4 -0.5,-2.1 l 0.9,-1.5 c 0,0 0.1,-0.1 0.1,-0.1 l 0.2,-0.4 c 0.2,-0.3 0.4,-0.5 0.7,-0.6 0.4,-0.2 0.9,-0.1 1.3,0.1 l 0.3,0.2 c 0,0 0.1,0 0.1,0.1 l 1.1,0.7 c 0.6,0.4 0.8,1.3 0.4,2 z m -0.6,-12 c -0.3,0.1 -0.5,0.3 -0.7,0.5 0,0 -0.1,0 -0.1,0 -0.2,-0.5 -0.4,-1 -0.8,-1.5 l 6.9,-3.9 c 0.9,-0.4 1.8,-0.9 2.7,-1.5 l -0.7,3.5 z M 86.6,25.5 c -2.1,0.6 -4.1,1.6 -5.9,3 -1,0.8 -2.1,1.5 -3.3,2 -0.1,0 -0.1,0.1 -0.2,0.1 L 69,35.2 68.5,34.9 c -0.4,-0.2 -0.8,-0.4 -1.3,-0.5 -0.1,0 -0.2,-0.1 -0.3,-0.1 0,0 -0.1,0 -0.1,0 0.1,-0.1 0.1,-0.1 0.2,-0.2 l 7.8,-9 4.8,-2.6 c 0.1,0 0.2,0.1 0.3,0.1 l 1.6,0.2 6.3,2.4 z m -0.4,-4.1 -2.4,-0.9 1.3,-0.9 c 0.3,-0.2 0.6,-0.6 0.6,-0.9 l 0.5,-2.2 c 0.8,-0.2 1.9,-0.5 3.5,-1 l 0.4,-0.1 z"
         id="path3323"
         style="fill:#19647e;fill-opacity:1" />
    </g>
    <path
       inkscape:connector-curvature="0"
       d="m 112.47906,29.167518 a 3.4471671,3.4471671 0 0 0 -3.13983,-3.011081 c -3.45132,-0.46516 -15.404273,-1.63637 -24.400133,2.907241 -2.36318,1.32904 -3.36827,2.63314 -3.60914,3.92479 -0.49424,1.66129 -1.50762,4.40241 -2.19706,4.94233 -0.54406,0.41532 -0.61467,0.80156 -0.57729,1.04245 a 0.74757841,0.74757841 0 0 0 0.50669,0.5856 1.1919723,1.1919723 0 0 0 0.41531,0.0706 1.7235835,1.7235835 0 0 0 1.08815,-0.41532 8.4144104,8.4144104 0 0 0 1.45778,-2.10568 c 0.0997,1.42041 0.0457,4.103364 -1.56991,5.565295 l -0.0498,0.054 c -0.85972,1.088137 -0.7642,7.209962 -0.73513,8.422702 v 0.41533 h 3.18553 v -0.41533 c 0.0581,-1.73189 0.45685,-4.23212 1.15459,-5.004627 a 6.9192537,6.9192537 0 0 0 1.06738,2.255197 c 0.9843,1.41625 2.13475,2.96955 2.1472,2.98201 l 0.12463,0.16612 h 3.56345 l -2.84494,-5.216417 c 0,0 -0.53162,-1.204424 0.0581,-1.740201 0.36133,-0.3281 1.24596,-1.304094 1.82326,-3.347465 a 35.015744,35.015744 0 0 0 9.09969,1.349794 c 0,1.025834 -0.15782,2.350698 -0.51499,2.707878 l -0.28243,0.282417 0.27413,0.29487 c 0.66866,0.722667 0.91785,3.613304 0.91785,5.266274 v 0.41532 h 3.281033 l 0.0997,-0.26996 a 14.752214,14.752214 0 0 0 0.83064,-4.684827 c 1.54916,1.628067 2.45456,3.231207 2.54593,4.568537 l 0.025,0.38625 h 3.77113 l -0.008,-0.45269 c 0,-0.16614 -0.34887,-4.02862 -3.26857,-6.470698 a 20.637318,20.637318 0 0 0 0.62297,-2.022611 h 3.94555 c 0.6936,0.830634 1.48269,1.474381 2.25936,1.383014 a 2.7992657,2.7992657 0 0 0 2.28011,-1.947854 2.8823301,2.8823301 0 0 0 2.07659,0 c 2.37981,-1.212734 0.51085,-8.107058 -0.80572,-10.798338 a 3.7918837,3.7918837 0 0 0 -4.61836,-2.08491 z m -32.469833,9.41118 a 0.83064268,0.83064268 0 0 1 -0.60637,0.22013 1.245964,1.245964 0 0 1 0.22013,-0.20768 c 0.6645,-0.51915 1.36224,-2.12229 1.85233,-3.45963 0.0706,0.23259 0.15782,0.46517 0.25749,0.69774 -0.36133,0.73513 -1.17535,2.28427 -1.72358,2.74944 z m 2.04754,12.148117 h -1.55746 c -0.0457,-2.8491 0.0873,-6.794635 0.53992,-7.475762 1.50762,-1.387174 1.83987,-3.584225 1.84817,-5.191505 1.14629,2.230267 1.2709,3.384851 1.03417,5.179035 a 8.5307003,8.5307003 0 0 0 -0.0499,2.001841 c -1.40794,0.764197 -1.73605,4.132441 -1.81496,5.486391 z m 20.080783,0 h -1.86894 c -0.0249,-1.10475 -0.16198,-3.89987 -0.926163,-5.137524 0.45685,-0.789117 0.5316,-2.226101 0.53576,-2.990305 0.577293,0 1.171203,0 1.777563,-0.054 a 6.8237296,6.8237296 0 0 1 0.0498,1.989371 l -0.0249,0.240887 0.18274,0.14943 q 0.47346,0.38625 0.90124,0.780807 c 0.33226,1.814954 -0.36548,4.219654 -0.62297,5.021234 z m 11.31336,-7.567142 c -0.97185,0.1204 -2.60822,-2.458691 -3.46377,-4.319335 l -0.7559,0.34473 a 19.378893,19.378893 0 0 0 1.44117,2.599901 h -3.11491 c 0.29902,-1.179517 0.54407,-2.275961 0.59805,-2.491921 l -0.83063,-0.18275 c -0.41533,1.827414 -1.17536,4.929859 -1.49515,5.465619 l -0.19105,0.319797 0.29487,0.22426 c 2.28427,1.748501 2.96124,4.568531 3.14813,5.635911 h -2.0766 c -0.3904,-2.54177 -2.85326,-4.983854 -4.44809,-6.300418 0.27826,-2.628968 -1.37471,-6.557899 -1.44532,-6.728179 l -0.76419,0.32396 a 23.374285,23.374285 0 0 1 1.1629,3.704651 35.343846,35.343846 0 0 1 -11.363193,-1.295794 17.102934,17.102934 0 0 0 0.3198,-3.708827 h -0.83065 c 0.0416,5.037851 -1.72773,6.898472 -2.0766,7.218272 -1.04661,0.946934 -0.29073,2.628968 -0.24505,2.728648 l 2.2012,4.024457 h -1.73603 c -0.32396,-0.43608 -1.22105,-1.66128 -2.01016,-2.7951 -0.99261,-1.432867 -1.2875,-2.716201 -1.03831,-4.568525 0.27826,-2.076608 0.1204,-3.459612 -1.5533,-6.479002 -0.74342,-1.33733 -1.28334,-2.52516 -1.05491,-3.69221 v -0.025 0 c 0.22428,-1.10061 1.13798,-2.18043 3.21459,-3.35995 8.77159,-4.435631 20.496113,-3.285191 23.901763,-2.82419 a 3.1979743,3.1979743 0 0 1 1.15043,0.36549 l -0.41533,0.66867 c -1.23349,1.94785 -1.40793,4.21966 -0.51499,5.88095 a 3.7877308,3.7877308 0 0 0 3.34748,2.04338 l 0.029,-0.83064 a 2.9903137,2.9903137 0 0 1 -2.64559,-1.60314 4.7595827,4.7595827 0 0 1 -0.15367,-3.70468 4.0950684,4.0950684 0 0 0 3.24365,3.29351 l 0.10798,-0.83065 c -0.11208,0 -2.75772,-0.41532 -2.65389,-4.02861 v -0.63959 a 2.824185,2.824185 0 0 1 0.93448,2.11813 l -0.0207,0.67283 0.61053,-0.26582 c 0.11207,-0.0499 2.74526,-1.15874 4.06183,1.50762 a 20.122318,20.122318 0 0 1 1.83988,6.81127 c -1.3581,0 -2.29673,0.37379 -2.79096,1.06322 a 2.3465656,2.3465656 0 0 0 -0.25751,1.985231 c -0.0747,0.34471 -0.47346,1.544994 -1.66128,1.673734 z m 4.08676,-1.873094 a 2.1555178,2.1555178 0 0 1 -1.63221,-0.107987 1.4910036,1.4910036 0 0 1 0.15782,-1.191977 c 0.32811,-0.460997 1.06739,-0.706047 2.1389,-0.718507 -0.0126,1.029997 -0.21597,1.790034 -0.66451,2.018461 z"
       id="path3356"
       style="fill:#19647e;fill-opacity:1;stroke-width:0.41532132" />
    <path
       inkscape:connector-curvature="0"
       d="m 67.587648,37.614478 c 0,-2.128991 -0.22548,-4.52483 -0.65341,-7.122126 l -0.0889,-0.51494 -1.18326,0.59812 0.8693,-2.245831 -0.0216,-0.109614 c -1.52414,-7.557254 -4.19451,-14.251951 -4.22098,-14.318782 l -0.35482,-0.884198 -0.3558,0.884198 c -0.0109,0.02837 -1.1472,2.871833 -2.34921,6.898077 l -0.0303,0.102888 0.43992,1.673675 -0.76495,-0.562539 -0.1481,0.534652 c -1.61263,5.806173 -2.42999,10.875756 -2.42999,15.066909 0,0.223571 0.001,0.44426 0.004,0.66207 l 9.8e-4,0.0928 0.95632,1.80013 -0.92554,-0.338008 0.026,0.573598 c 0.18366,4.022881 0.77602,7.087992 1.78233,9.111692 1.04671,2.104469 2.43046,2.730478 3.39207,2.845387 v 4.780632 h 0.96161 v -4.801301 c 1.92321,-0.33273 5.09507,-2.894439 5.09507,-14.727468 z m -5.65423,14.00434 c -2.69732,0 -4.38831,-3.78343 -4.78304,-10.673339 l 1.71839,0.627449 -1.80542,-3.397351 c -10e-4,-0.18511 -0.002,-0.3707 -0.002,-0.56062 0,-2.758358 0.37069,-5.918195 1.08709,-9.42036 l 4.17481,-2.024179 0.25963,0.0702 c -0.26299,3.542554 -1.3823,18.954681 -1.02171,20.540851 l 0.74622,-0.170199 c -0.29091,-1.281823 0.6005,-14.388985 1.02794,-20.166307 l 2.13764,0.579847 c 0.0903,0.409163 0.1799,0.821212 0.26397,1.237105 l -1.50972,3.897386 2.02755,-1.026033 c 0.36637,2.357374 0.55147,4.53589 0.55147,6.481699 0,8.900142 -1.77609,14.003859 -4.87244,14.003859 z"
       id="path3382"
       style="fill:#19647e;fill-opacity:1;stroke-width:0.4808026" />
    <path
       inkscape:connector-curvature="0"
       d="m 45.32524,51.300878 c -0.10992,-2.2021 -1.0707,-5.55344 -2.85549,-9.961041 -0.71915,-1.776286 -1.7075,-4.002588 -2.29421,-5.299565 0.039,0.0225 0.0769,0.04416 0.11248,0.06453 0.85207,0.495866 1.0291,0.597331 1.24646,0.394824 l 0.17067,-0.194015 -0.10575,-0.21312 c -2.51457,-5.05036 -6.16861,-9.094128 -9.09371,-10.062934 -0.66228,-0.219064 -1.27363,-0.274679 -1.82892,-0.176185 0.47548,-0.642334 1.19253,-1.857799 0.8856,-2.63514 -0.21015,-0.53195 -0.91065,-0.75356 -1.56444,-0.49544 -0.15035,0.0594 -0.27936,0.1435 -0.39526,0.23732 0.45087,-0.6712 1.08089,-1.86756 0.75484,-2.61348 -0.22883,-0.52389 -0.93696,-0.72045 -1.58142,-0.43898 -0.24793,0.10826 -0.44323,0.27425 -0.58544,0.46403 -0.0144,-0.0127 -0.0281,-0.0259 -0.042,-0.0386 -0.85418,-0.75909 -1.77841,-1.2851 -1.81661,-1.30717 -0.15581,-0.0879 -0.3494,-0.0327 -0.43728,0.121 -0.0866,0.15368 -0.0322,0.34897 0.12098,0.43643 0.008,0.005 0.72936,0.41563 1.45745,1.01593 -0.18679,0.004 -0.38123,0.0446 -0.57059,0.12735 -0.64446,0.28148 -0.98111,0.93442 -0.75228,1.45873 0.30907,0.70687 1.4982,1.05796 2.30145,1.19976 -0.1181,0.01614 -0.23733,0.04246 -0.35577,0.08915 -0.65423,0.258122 -1.01423,0.898757 -0.80409,1.430709 0.30228,0.76545 1.61963,1.162397 2.41056,1.312684 -3.03718,1.711332 -2.65425,5.472356 -1.93888,9.508058 0.0544,0.305245 0.25684,0.359162 0.34047,0.368077 0.26746,0.02887 0.41733,-0.166845 0.66017,-0.719175 0.23561,2.000445 0.59096,3.701163 1.48718,6.448377 0.3392,1.037583 1.70623,3.855274 2.45597,4.799881 l 0.1817,0.184251 0.19656,-0.04586 c 0.24582,-0.05647 0.3804,-0.277228 0.60881,-1.195935 0.56548,4.019991 1.99153,8.487878 4.56637,10.554551 1.0622,0.852057 2.2212,1.199756 3.44643,1.032487 0.57441,-0.07811 1.08768,-0.417748 1.48548,-0.98239 0.81301,-1.153483 1.1225,-3.17091 0.84739,-5.323764 0.6381,0.728938 0.80705,0.906397 1.07453,0.795166 l 0.22202,-0.11293 z M 29.13021,23.462772 c 0.0395,0 0.0704,-0.0013 0.0807,-0.0059 0.002,-8.47e-4 0.006,-0.0059 0.01,-0.0077 -0.005,0.01316 -0.0144,0.02505 -0.0199,0.03821 -0.0222,-0.01059 -0.0475,-0.01524 -0.0701,-0.02463 z M 44.41968,50.308725 C 43.79051,49.587852 43.67716,49.46049 43.41522,49.587852 l -0.22416,0.134575 0.0505,0.241991 c 0.48694,2.314604 0.25641,4.660201 -0.57314,5.83661 -0.29676,0.421145 -0.64954,0.662287 -1.04861,0.717053 -1.04439,0.142229 -2.03994,-0.159623 -2.95949,-0.897483 -2.30485,-1.85058 -4.08113,-6.503567 -4.52478,-11.854503 l -0.0343,-0.315436 -0.27426,-0.01868 c -0.0408,-0.003 -0.0761,-0.0026 -0.10831,0.0019 -0.20803,0.02845 -0.2543,0.239016 -0.42922,1.031637 -0.0789,0.35869 -0.21735,0.992108 -0.33835,1.395 -0.71664,-1.102537 -1.81195,-3.379359 -2.09131,-4.236935 -1.04266,-3.192986 -1.33943,-4.945497 -1.57886,-7.447751 l -0.0361,-0.277652 -0.24836,-0.0365 c -0.29295,-0.04202 -0.36342,0.149016 -0.61771,0.772668 -0.0302,0.07429 -0.0684,0.165997 -0.10831,0.261943 -0.68648,-4.18047 -0.55743,-6.760417 1.66463,-8.069281 0.4479,0.833801 1.78902,3.420965 3.32374,7.014717 0.62366,1.460851 2.51416,6.06629 2.93063,7.066937 1.79115,4.303588 4.10872,10.810128 4.40887,10.763427 0.91914,-0.143497 -9.16419,-23.983685 -10.04341,-25.133346 0.50775,-0.148584 1.09278,-0.116749 1.74913,0.09892 2.57102,0.851632 5.90156,4.453452 8.28877,8.904783 -0.85079,-0.495017 -1.05797,-0.61219 -1.27703,-0.410958 l -0.17194,0.191045 0.098,0.213119 c 0.4292,0.933569 1.74019,3.839989 2.63429,6.045913 1.54999,3.826401 2.46742,6.829615 2.73574,8.94681 -0.0688,-0.07896 -0.13543,-0.154953 -0.19232,-0.21949 z"
       id="path3408"
       style="fill:#19647e;fill-opacity:1;stroke-width:0.42454258" />
    <path
       inkscape:connector-curvature="0"
       d="m 68.696405,98.621052 c 0,0 0,0 0,0 l 0.84669,-0.42334 c 0,0 0,0 0,0 0,0 0,-0.10583 0,-1.269997 0,-1.42875 -0.76729,-1.71979 -0.97901,-1.7727 v -4.603752 c 2.11673,-2.566458 3.38673,-5.87375 3.38673,-9.445625 0,-8.255003 -6.69404,-14.948963 -14.949044,-14.948963 -8.255,0 -14.94891,6.72042 -14.94891,14.948963 0,3.280833 1.05831,6.297083 2.8575,8.757708 v 5.423959 c -0.21169,0.0529 -0.9525,0.37041 -0.97898,1.7727 -0.0259,1.640417 0.0259,2.698757 0.0259,2.698757 l 0.9525,0.1852 -0.9525,0.0265 c 0,0 0.18521,4.021668 1.05841,5.979588 l -0.027,-10.556875 h 0.1058 v 10.556875 c 1.1906,-2.46063 1.03191,-7.487708 1.03191,-7.487708 l -0.8467,0.26458 c 0,0 0,0 0,0 l 0.8467,-0.42333 c 0,0 0,0 0,0 0,0 0,-0.10583 0,-1.269997 0,-1.34938 -0.688,-1.69333 -0.9525,-1.77271 v -5.079998 c 0.87309,1.137707 1.905,2.116664 3.0427,2.963328 v 5.767917 c -0.21169,0.0529 -0.9525,0.37042 -0.97901,1.772708 -0.0259,1.64042 0.0259,2.69875 0.0259,2.69875 l 0.9525,0.18521 -0.9525,0.0265 c 0,0 0.18521,4.02167 1.05831,5.97958 l -0.053,-10.398118 h 0.10589 v 10.424578 c 1.1906,-2.46062 1.0319,-7.48771 1.0319,-7.48771 l -0.84669,0.26459 c 0,0 0,0 0,0 l 0.84669,-0.42334 c 0,0 0,0 0,0 0,0 0,-0.10583 0,-1.27 0,-1.349368 -0.688,-1.693328 -0.9525,-1.772708 v -5.556247 c 1.13771,0.79375 2.40771,1.45521 3.757,1.905 v 8.466665 c -0.23809,0.0794 -0.92601,0.39688 -0.9525,1.77271 -0.0259,1.64042 0.0259,2.69875 0.0259,2.69875 l 0.9525,0.18521 -0.9525,0.0265 c 0,0 0.18519,4.02166 1.05839,5.97958 l -0.027,-10.45104 h 0.10578 v 10.4775 c 1.1906,-2.46063 1.0319,-7.48771 1.0319,-7.48771 l -0.84669,0.26458 c 0,0 0,0 0,0 l 0.84669,-0.42333 c 0,0 0,0 0,0 0,0 0,-0.10583 0,-1.27 0,-1.37583 -0.7144,-1.69333 -0.9525,-1.77271 v -8.360825 c 1.4287,0.44979 2.93691,0.68791 4.49792,0.68791 1.37578,0 2.6987,-0.1852 3.9687,-0.52916 v 8.228535 c -0.2381,0.0794 -0.9525,0.39687 -0.9525,1.77271 -0.027,1.64041 0.0259,2.69875 0.0259,2.69875 l 0.9525,0.18521 -0.9525,0.0265 c 0,0 0.18531,4.02166 1.05841,5.97958 l -0.0259,-10.53042 h 0.10581 v 10.53042 c 1.1906,-2.46063 1.0319,-7.48771 1.0319,-7.48771 l -0.84669,0.26458 c 0,0 0,0 0,0 l 0.84669,-0.42333 c 0,0 0,0 0,0 0,0 0,-0.10583 0,-1.27 0,-1.37583 -0.7144,-1.69333 -0.9525,-1.77271 v -8.307905 c 1.3494,-0.39688 2.619404,-0.97896 3.757114,-1.7198 v 5.238747 c -0.23821,0.0794 -0.9525,0.39688 -0.9525,1.772708 -0.0259,1.64042 0.0259,2.69875 0.0259,2.69875 l 0.9525,0.18521 -0.9525,0.0265 c 0,0 0.18521,4.02167 1.05831,5.97958 l -0.0259,-10.530408 h 0.1058 v 10.530408 c 1.19072,-2.46062 1.03191,-7.4877 1.03191,-7.4877 l -0.8467,0.26458 c 0,0 0,0 0,0 l 0.8467,-0.42333 c 0,0 0,0 0,0 0,0 0,-0.10584 0,-1.27 0,-1.375838 -0.71441,-1.693338 -0.95251,-1.772708 v -5.423957 c 1.13772,-0.767287 2.14311,-1.666874 3.04273,-2.698747 v 4.312707 c -0.26461,0.0794 -0.89962,0.44979 -0.92602,1.74625 -0.0259,1.640407 0.027,2.698747 0.027,2.698747 l 0.95251,0.18521 -0.95251,0.0265 c 0,0 0.18518,4.021668 1.05829,5.979578 l -0.0259,-10.503955 h 0.10581 v 10.503955 c 1.19069,-2.46062 1.03187,-7.487708 1.03187,-7.487708 z m 2.4342,-18.203331 c 0.3969,0 0.74081,0.3175 0.74081,0.740834 0,0.423333 -0.3175,0.740833 -0.74081,0.740833 -0.3969,0 -0.7408,-0.3175 -0.7408,-0.740833 0,-0.423334 0.3175,-0.740834 0.7408,-0.740834 z m -0.7938,0.05292 c -2.196,-2.38125 -4.49791,-3.545417 -6.82623,-3.439583 -1.375804,0.05292 -2.592894,0.529166 -3.598304,1.137708 0.60851,-1.005417 1.11119,-2.248958 1.16411,-3.65125 0.10589,-2.328331 -1.0318,-4.577291 -3.3337,-6.746871 6.826204,0.39687 12.276624,5.87375 12.594124,12.699996 z m -13.996444,0.343958 c 0.079,0.105834 0.1587,0.185209 0.21172,0.264584 -0.18531,0.238125 -0.58211,0.714375 -1.16422,1.243541 -0.26458,-0.343958 -0.42328,-0.767291 -0.42328,-1.217083 0,-0.449792 0.1587,-0.873125 0.42328,-1.217083 0.34391,0.396875 0.68792,0.714375 0.9525,0.926041 z m -0.52919,-1.322916 c 0.3175,-0.211667 0.68789,-0.343959 1.08479,-0.343959 0.44982,0 0.84672,0.15875 1.1906,0.396875 -0.37039,0.343959 -0.635,0.661459 -0.84659,0.899584 -0.079,0.07938 -0.1852,0.15875 -0.2382,0.185208 -0.079,-0.05292 -0.1587,-0.132292 -0.2645,-0.211667 -0.23821,-0.238125 -0.5292,-0.582083 -0.9261,-0.926041 z m 1.16419,2.196041 c 0.1587,0.132292 0.42331,0.343959 0.74081,0.661459 0.079,0.07937 0.13229,0.132291 0.21169,0.211666 0.0259,0.02646 0.079,0.07937 0.10581,0.105834 -0.3175,0.238125 -0.7144,0.370416 -1.16409,0.370416 -0.3969,0 -0.74091,-0.105833 -1.05841,-0.3175 0.52919,-0.502708 0.9525,-0.846666 1.16419,-1.031875 z m 0.39691,-0.555625 c 0.053,-0.07937 0.13231,-0.15875 0.23809,-0.291041 0.2381,-0.211667 0.5556,-0.47625 0.89961,-0.846667 0.21159,0.3175 0.34391,0.687917 0.34391,1.11125 0,0.449792 -0.1587,0.846667 -0.3968,1.190625 -0.053,-0.05292 -0.13231,-0.105833 -0.18531,-0.15875 -0.027,-0.02646 -0.079,-0.07937 -0.10581,-0.105833 -0.37039,-0.396875 -0.66138,-0.740834 -0.79369,-0.899584 z m 1.27,-2.143125 c -0.47631,-0.396875 -1.0848,-0.635 -1.74631,-0.635 -0.60849,0 -1.1906,0.211667 -1.64039,0.555625 -0.8731,-1.11125 -1.77271,-2.619375 -1.8256,-4.418541 -0.10591,-2.275413 1.1112,-4.524373 3.5718,-6.693963 2.4607,2.14313 3.6513,4.39209 3.5719,6.693963 -0.10581,1.825625 -1.0319,3.386666 -1.9314,4.497916 z m -3.863,3.862917 c -1.08469,0.873125 -2.6193,1.719792 -4.392,1.799167 -2.2755,0.105833 -4.52441,-1.11125 -6.69399,-3.571875 2.1431,-2.460625 4.39208,-3.65125 6.69399,-3.571875 1.79911,0.07938 3.30731,0.9525 4.41851,1.825625 -0.3969,0.47625 -0.635,1.084791 -0.635,1.772708 0,0.661458 0.21169,1.27 0.60849,1.74625 z m 0.52919,0.502708 c 0.44982,0.3175 1.00542,0.502709 1.5875,0.502709 0.635,0 1.21711,-0.211667 1.69331,-0.582084 0.92609,1.11125 1.87859,2.69875 1.958,4.577292 0.1058,2.248958 -1.0848,4.497915 -3.4925,6.614579 -0.0259,0 -0.0259,0 -0.053,0 -0.027,0 -0.053,0 -0.079,0 -2.40769,-2.143124 -3.59839,-4.365621 -3.4925,-6.614579 0.079,-1.825625 0.9789,-3.386667 1.87851,-4.497917 z m 3.75711,-3.915833 c 1.1112,-0.899583 2.64581,-1.799167 4.471514,-1.878542 2.2754,-0.105833 4.52432,1.11125 6.69391,3.571875 -2.14311,2.460625 -4.3921,3.65125 -6.69391,3.571875 -1.825704,-0.07937 -3.386724,-0.978958 -4.498024,-1.878541 0.37052,-0.47625 0.58211,-1.058334 0.58211,-1.693334 0.027,-0.661458 -0.18521,-1.243541 -0.5556,-1.693333 z m -2.11669,-13.202711 c 0.3969,0 0.74089,0.3175 0.74089,0.74084 0,0.39687 -0.3175,0.74083 -0.74089,0.74083 -0.3968,0 -0.74081,-0.3175 -0.74081,-0.74083 0,-0.39688 0.34401,-0.74084 0.74081,-0.74084 z m -0.74081,1.53459 c -2.3019,2.14312 -3.43961,4.41854 -3.3338,6.746871 0.053,1.375833 0.5557,2.619375 1.16419,3.624792 -1.00539,-0.608542 -2.24888,-1.084792 -3.62479,-1.164167 -2.32831,-0.105833 -4.57729,1.031875 -6.7469,3.360208 0.3969,-6.746874 5.7944,-12.170834 12.5413,-12.567704 z m -13.335,13.996454 c -0.3969,0 -0.7408,-0.3175 -0.7408,-0.740833 0,-0.396875 0.3175,-0.740833 0.7408,-0.740833 0.3969,0 0.74081,0.3175 0.74081,0.740833 -0.0259,0.396875 -0.34391,0.740833 -0.74081,0.740833 z m 0.7937,0.05292 c 2.0638,2.2225 4.25979,3.360208 6.48229,3.360208 0.10591,0 0.18521,0 0.29112,0 1.48159,-0.05292 2.75159,-0.608541 3.81,-1.27 -0.68791,1.058334 -1.27,2.38125 -1.3494,3.915834 -0.10581,2.275416 0.97899,4.49792 3.20149,6.614584 -6.7205,-0.4498 -12.09149,-5.873751 -12.4355,-12.620626 z m 13.335,14.181666 c -0.3968,0 -0.74081,-0.3175 -0.74081,-0.74084 0,-0.42333 0.3175,-0.74083 0.74081,-0.74083 0.3969,0 0.74091,0.3175 0.74091,0.74083 0,0.42334 -0.34401,0.74084 -0.74091,0.74084 z m 0.8732,-1.56104 c 2.2225,-2.116664 3.3073,-4.339168 3.20141,-6.614584 -0.053,-1.455209 -0.60852,-2.751667 -1.27,-3.81 1.0319,0.635 2.27539,1.137708 3.677684,1.190625 0.10591,0 0.18521,0 0.29112,0 2.24889,0 4.44502,-1.164167 6.56162,-3.439584 -0.3175,6.773334 -5.71503,12.223743 -12.461834,12.673543 z"
       id="path3434"
       style="fill:#19647e;fill-opacity:1;stroke-width:0.26458332" />
    <g
       id="g4286"
       transform="matrix(2.0140206,0,0,2.0140206,-2077.3489,-274.41122)"
       style="fill:#19647e;fill-opacity:1">
      <g
         transform="matrix(0.26458333,0,0,0.26458333,1100.219,166.23143)"
         id="g4000"
         style="fill:#19647e;fill-opacity:1">
        <g
           id="g3992"
           style="fill:#19647e;fill-opacity:1">
          <g
             id="g3990"
             style="fill:#19647e;fill-opacity:1">
            <path
               id="path3988"
               d="m 30.424,34.611 -0.416,-3.731 -9.207,-9.208 0.064,0.403 0.566,1.881 -1.076,1.076 1.342,0.267 5.103,15.282 c 2.012,-3.397 3.624,-5.97 3.624,-5.97 z"
               inkscape:connector-curvature="0"
               style="fill:#19647e;fill-opacity:1" />
          </g>
        </g>
        <g
           id="g3998"
           style="fill:#19647e;fill-opacity:1">
          <g
             id="g3996"
             style="fill:#19647e;fill-opacity:1">
            <path
               id="path3994"
               d="m 34.064,30.971 -3.575,-0.571 -9.207,-9.208 0.248,0.22 1.725,0.722 1.076,-1.075 0.266,1.342 15.36,5.024 c -3.398,2.012 -5.893,3.546 -5.893,3.546 z"
               inkscape:connector-curvature="0"
               style="fill:#19647e;fill-opacity:1" />
          </g>
        </g>
      </g>
      <g
         transform="matrix(0.26458333,0,0,0.26458333,1100.219,166.23143)"
         id="g4014"
         style="fill:#19647e;fill-opacity:1">
        <g
           id="g4006"
           style="fill:#19647e;fill-opacity:1">
          <g
             id="g4004"
             style="fill:#19647e;fill-opacity:1">
            <path
               id="path4002"
               d="M 25.276,53.152 22.344,51 H 9.323 L 9.461,51.047 11,51.785 v 1.521 l 1.329,-0.762 14.51,7.295 c -0.98,-3.823 -1.563,-6.687 -1.563,-6.687 z"
               inkscape:connector-curvature="0"
               style="fill:#19647e;fill-opacity:1" />
          </g>
        </g>
        <g
           id="g4012"
           style="fill:#19647e;fill-opacity:1">
          <g
             id="g4010"
             style="fill:#19647e;fill-opacity:1">
            <path
               id="path4008"
               d="M 25.276,47.844 22.345,50 H 9.323 L 9.461,49.948 11,49.208 v -1.521 l 1.329,0.761 14.51,-7.293 c -0.98,3.824 -1.563,6.689 -1.563,6.689 z"
               inkscape:connector-curvature="0"
               style="fill:#19647e;fill-opacity:1" />
          </g>
        </g>
      </g>
      <g
         transform="matrix(0.26458333,0,0,0.26458333,1100.219,166.23143)"
         id="g4028"
         style="fill:#19647e;fill-opacity:1">
        <g
           id="g4020"
           style="fill:#19647e;fill-opacity:1">
          <g
             id="g4018"
             style="fill:#19647e;fill-opacity:1">
            <path
               id="path4016"
               d="m 34.747,69.711 -3.596,0.553 -9.207,9.206 0.131,-0.064 1.609,-0.565 1.076,1.075 0.4,-1.478 15.419,-5.103 c -3.396,-2.011 -5.832,-3.624 -5.832,-3.624 z"
               inkscape:connector-curvature="0"
               style="fill:#19647e;fill-opacity:1" />
          </g>
        </g>
        <g
           id="g4026"
           style="fill:#19647e;fill-opacity:1">
          <g
             id="g4024"
             style="fill:#19647e;fill-opacity:1">
            <path
               id="path4022"
               d="m 30.993,65.957 -0.549,3.598 -9.207,9.208 0.061,-0.134 0.565,-1.611 -1.075,-1.076 1.477,-0.4 5.104,-15.418 c 2.011,3.396 3.624,5.833 3.624,5.833 z"
               inkscape:connector-curvature="0"
               style="fill:#19647e;fill-opacity:1" />
          </g>
        </g>
      </g>
      <g
         transform="matrix(0.26458333,0,0,0.26458333,1100.219,166.23143)"
         id="g4042"
         style="fill:#19647e;fill-opacity:1">
        <g
           id="g4034"
           style="fill:#19647e;fill-opacity:1">
          <g
             id="g4032"
             style="fill:#19647e;fill-opacity:1">
            <path
               id="path4030"
               d="M 53.15,74.723 51,77.656 V 90.677 L 51.046,90.539 51.784,89 h 1.521 l -0.762,-1.328 7.295,-14.511 c -3.823,0.982 -6.688,1.562 -6.688,1.562 z"
               inkscape:connector-curvature="0"
               style="fill:#19647e;fill-opacity:1" />
          </g>
        </g>
        <g
           id="g4040"
           style="fill:#19647e;fill-opacity:1">
          <g
             id="g4038"
             style="fill:#19647e;fill-opacity:1">
            <path
               id="path4036"
               d="M 47.843,74.723 50,77.655 V 90.676 L 49.948,90.538 49.208,89 h -1.521 l 0.762,-1.328 -7.293,-14.51 c 3.823,0.979 6.687,1.561 6.687,1.561 z"
               inkscape:connector-curvature="0"
               style="fill:#19647e;fill-opacity:1" />
          </g>
        </g>
      </g>
      <g
         transform="matrix(0.26458333,0,0,0.26458333,1100.219,166.23143)"
         id="g4056"
         style="fill:#19647e;fill-opacity:1">
        <g
           id="g4048"
           style="fill:#19647e;fill-opacity:1">
          <g
             id="g4046"
             style="fill:#19647e;fill-opacity:1">
            <path
               id="path4044"
               d="m 69.709,65.254 0.554,3.595 9.207,9.207 -0.064,-0.13 -0.566,-1.61 1.076,-1.075 -1.479,-0.4 -5.102,-15.42 c -2.011,3.397 -3.626,5.833 -3.626,5.833 z"
               inkscape:connector-curvature="0"
               style="fill:#19647e;fill-opacity:1" />
          </g>
        </g>
        <g
           id="g4054"
           style="fill:#19647e;fill-opacity:1">
          <g
             id="g4052"
             style="fill:#19647e;fill-opacity:1">
            <path
               id="path4050"
               d="m 65.956,69.006 3.6,0.549 9.207,9.208 -0.134,-0.061 -1.612,-0.565 -1.075,1.076 -0.4,-1.478 -15.417,-5.103 c 3.395,-2.012 5.831,-3.626 5.831,-3.626 z"
               inkscape:connector-curvature="0"
               style="fill:#19647e;fill-opacity:1" />
          </g>
        </g>
      </g>
      <g
         transform="matrix(0.26458333,0,0,0.26458333,1100.219,166.23143)"
         id="g4070"
         style="fill:#19647e;fill-opacity:1">
        <g
           id="g4062"
           style="fill:#19647e;fill-opacity:1">
          <g
             id="g4060"
             style="fill:#19647e;fill-opacity:1">
            <path
               id="path4058"
               d="M 74.723,46.85 77.655,49 H 90.676 L 90.538,48.954 89,48.216 89.001,46.695 87.672,47.457 73.161,40.161 c 0.982,3.824 1.562,6.689 1.562,6.689 z"
               inkscape:connector-curvature="0"
               style="fill:#19647e;fill-opacity:1" />
          </g>
        </g>
        <g
           id="g4068"
           style="fill:#19647e;fill-opacity:1">
          <g
             id="g4066"
             style="fill:#19647e;fill-opacity:1">
            <path
               id="path4064"
               d="M 74.722,52.156 77.655,50 H 90.676 L 90.538,50.052 89,50.792 v 1.521 l -1.328,-0.762 -14.509,7.294 c 0.977,-3.824 1.559,-6.689 1.559,-6.689 z"
               inkscape:connector-curvature="0"
               style="fill:#19647e;fill-opacity:1" />
          </g>
        </g>
      </g>
      <g
         transform="matrix(0.26458333,0,0,0.26458333,1100.219,166.23143)"
         id="g4084"
         style="fill:#19647e;fill-opacity:1">
        <g
           id="g4076"
           style="fill:#19647e;fill-opacity:1">
          <g
             id="g4074"
             style="fill:#19647e;fill-opacity:1">
            <path
               id="path4072"
               d="m 65.254,30.291 3.595,-0.553 9.207,-9.208 -0.13,0.064 -1.61,0.566 -1.075,-1.076 -0.4,1.479 -15.42,5.102 c 3.397,2.011 5.833,3.626 5.833,3.626 z"
               inkscape:connector-curvature="0"
               style="fill:#19647e;fill-opacity:1" />
          </g>
        </g>
        <g
           id="g4082"
           style="fill:#19647e;fill-opacity:1">
          <g
             id="g4080"
             style="fill:#19647e;fill-opacity:1">
            <path
               id="path4078"
               d="m 69.005,34.043 0.551,-3.599 9.207,-9.208 -0.061,0.134 -0.564,1.612 1.075,1.076 -1.478,0.4 -5.102,15.417 C 70.62,36.481 69.005,34.043 69.005,34.043 Z"
               inkscape:connector-curvature="0"
               style="fill:#19647e;fill-opacity:1" />
          </g>
        </g>
      </g>
      <g
         transform="matrix(0.26458333,0,0,0.26458333,1100.219,166.23143)"
         id="g4098"
         style="fill:#19647e;fill-opacity:1">
        <g
           id="g4090"
           style="fill:#19647e;fill-opacity:1">
          <g
             id="g4088"
             style="fill:#19647e;fill-opacity:1">
            <path
               id="path4086"
               d="M 46.849,25.277 49,22.344 V 9.323 L 48.954,9.46 48.216,11 46.695,10.999 47.457,12.328 40.16,26.839 c 3.825,-0.982 6.689,-1.562 6.689,-1.562 z"
               inkscape:connector-curvature="0"
               style="fill:#19647e;fill-opacity:1" />
          </g>
        </g>
        <g
           id="g4096"
           style="fill:#19647e;fill-opacity:1">
          <g
             id="g4094"
             style="fill:#19647e;fill-opacity:1">
            <path
               id="path4092"
               d="M 52.155,25.278 50,22.345 V 9.323 l 0.052,0.138 0.74,1.539 h 1.521 l -0.762,1.328 7.294,14.509 c -3.824,-0.977 -6.69,-1.559 -6.69,-1.559 z"
               inkscape:connector-curvature="0"
               style="fill:#19647e;fill-opacity:1" />
          </g>
        </g>
      </g>
    </g>
    <g
       style="clip-rule:evenodd;fill:#19647e;fill-opacity:1;fill-rule:evenodd;image-rendering:optimizeQuality;shape-rendering:geometricPrecision;text-rendering:geometricPrecision"
       id="g4315"
       transform="matrix(7.5899862e-4,0,0,7.5899862e-4,85.762772,62.173769)">
      <g
         id="g4298"
         style="fill:#19647e;fill-opacity:1">
        <path
           id="path4296"
           d="m 9708,10794 c -386,-393 -381,-1024 12,-1410 393,-386 1024,-381 1410,12 l 9869,10056 c 386,393 381,1024 -12,1410 -393,386 -1024,381 -1410,-12 z m 29081,29632 c -386,-393 -381,-1024 12,-1410 393,-386 1024,-381 1410,12 l 10077,10268 c 386,393 381,1024 -12,1410 -393,386 -1024,381 -1410,-12 z M 48866,9396 c 386,-393 1018,-398 1410,-12 393,386 398,1018 12,1410 l -9869,10056 c -386,393 -1018,398 -1410,12 -393,-386 -398,-1018 -12,-1410 z M 19785,39028 c 386,-393 1018,-398 1410,-12 393,386 398,1018 12,1410 L 11130,50694 c -386,393 -1018,398 -1410,12 -393,-386 -398,-1018 -12,-1410 z M 29998,22245 c 2154,0 4104,873 5515,2285 1412,1412 2285,3361 2285,5515 0,2154 -873,4104 -2285,5515 -1412,1412 -3361,2285 -5515,2285 -2154,0 -4104,-873 -5515,-2285 -1412,-1412 -2285,-3361 -2285,-5515 0,-2154 873,-4104 2285,-5515 1412,-1412 3361,-2285 5515,-2285 z m 4101,3699 c -1050,-1050 -2499,-1699 -4101,-1699 -1602,0 -3052,649 -4101,1699 -1050,1050 -1699,2499 -1699,4101 0,1602 649,3052 1699,4101 1050,1050 2499,1699 4101,1699 1602,0 3052,-649 4101,-1699 1050,-1050 1699,-2499 1699,-4101 0,-1602 -649,-3052 -1699,-4101 z m 23635,4322 -7302,7302 c -156,156 -409,156 -566,0 -78,-78 -117,-180 -117,-283 v -3301 l -3603,3603 c -156,156 -409,156 -566,0 -78,-78 -117,-180 -117,-283 v -3276 l -3551,3551 c -156,156 -409,156 -566,0 -78,-78 -117,-180 -117,-283 V 22691 c 0,-221 179,-400 400,-400 112,0 213,46 285,120 l 3548,3548 v -3259 c 0,-221 179,-400 400,-400 112,0 213,46 285,120 l 3601,3601 v -3341 c 0,-221 179,-400 400,-400 112,0 213,46 285,120 l 7300,7300 c 156,156 156,409 0,566 z M 9570,37585 2268,30283 c -156,-156 -156,-409 0,-566 l 7300,-7300 c 73,-74 174,-120 285,-120 221,0 400,179 400,400 v 3341 l 3601,-3601 c 73,-74 174,-120 285,-120 221,0 400,179 400,400 v 3259 l 3548,-3548 c 73,-74 174,-120 285,-120 221,0 400,179 400,400 v 14605 c 0,102 -39,205 -117,283 -156,156 -409,156 -566,0 l -3551,-3551 v 3276 c 0,102 -39,205 -117,283 -156,156 -409,156 -566,0 l -3603,-3603 v 3301 c 0,102 -39,205 -117,283 -156,156 -409,156 -566,0 z m 20166,20150 -7302,-7302 c -156,-156 -156,-409 0,-566 78,-78 180,-117 283,-117 h 3301 l -3603,-3603 c -156,-156 -156,-409 0,-566 78,-78 180,-117 283,-117 h 3276 l -3551,-3551 c -156,-156 -156,-409 0,-566 78,-78 180,-117 283,-117 h 14605 c 221,0 400,179 400,400 0,112 -46,213 -120,285 l -3548,3548 h 3259 c 221,0 400,179 400,400 0,112 -46,213 -120,285 l -3601,3601 h 3341 c 221,0 400,179 400,400 0,112 -46,213 -120,285 l -7300,7300 c -156,156 -409,156 -566,0 z M 22417,9571 29719,2269 c 156,-156 409,-156 566,0 l 7300,7300 c 74,73 120,174 120,285 0,221 -179,400 -400,400 h -3341 l 3601,3601 c 74,73 120,174 120,285 0,221 -179,400 -400,400 h -3259 l 3548,3548 c 74,73 120,174 120,285 0,221 -179,400 -400,400 H 22689 c -102,0 -205,-39 -283,-117 -156,-156 -156,-409 0,-566 l 3551,-3551 h -3276 c -102,0 -205,-39 -283,-117 -156,-156 -156,-409 0,-566 l 3603,-3603 h -3301 c -102,0 -205,-39 -283,-117 -156,-156 -156,-409 0,-566 z"
           class="fil0"
           inkscape:connector-curvature="0"
           style="fill:#19647e;fill-opacity:1;fill-rule:nonzero" />
      </g>
      <text
         id="text4300"
         font-weight="bold"
         font-size="5px"
         y="60015"
         x="0"
         style="font-weight:bold;font-size:5px;font-family:'Helvetica Neue', Helvetica, Arial-Unicode, Arial, Sans-serif;fill:#19647e;fill-opacity:1">Created by Olena Panasovska</text>
      <text
         id="text4302"
         font-weight="bold"
         font-size="5px"
         y="60020"
         x="0"
         style="font-weight:bold;font-size:5px;font-family:'Helvetica Neue', Helvetica, Arial-Unicode, Arial, Sans-serif;fill:#19647e;fill-opacity:1">from the Noun Project</text>
    </g>
    <g
       id="g4538"
       transform="matrix(2.1150388,0,0,2.1150388,-2423.691,-896.11872)"
       style="fill:#19647e;fill-opacity:1">
      <g
         id="g4473"
         transform="matrix(2.311572,0,0,2.311572,1229.2582,-236.6839)"
         style="fill:#19647e;fill-opacity:1">
        <path
           id="path4445"
           d="m 3.0429688,290.38477 a 0.1323049,0.1323049 0 0 0 -0.1328126,0.13281 v 0.66211 h 0.265625 v -0.5293 h 4.4980469 c -4.7e-6,0.16958 -9.94e-5,3.52727 0,5.29102 0,0.29545 -0.23385,0.52929 -0.5292969,0.52929 H 4.4980469 v 0.26368 h 2.6464843 c 0.4374492,0 0.7929688,-0.35552 0.7929688,-0.79297 -1.019e-4,-1.80799 0,-5.42383 0,-5.42383 a 0.1323049,0.1323049 0 0 0 -0.1328125,-0.13281 z"
           style="color:#000000;font-style:normal;font-variant:normal;font-weight:normal;font-stretch:normal;font-size:medium;line-height:normal;font-family:sans-serif;text-indent:0;text-align:start;text-decoration:none;text-decoration-line:none;text-decoration-style:solid;text-decoration-color:#000000;letter-spacing:normal;word-spacing:normal;text-transform:none;writing-mode:lr-tb;direction:ltr;baseline-shift:baseline;text-anchor:start;white-space:normal;clip-rule:nonzero;display:inline;overflow:visible;visibility:visible;opacity:1;isolation:auto;mix-blend-mode:normal;color-interpolation:sRGB;color-interpolation-filters:linearRGB;solid-color:#000000;solid-opacity:1;fill:#19647e;fill-opacity:1;fill-rule:nonzero;stroke:none;stroke-width:0.26458335;stroke-linecap:butt;stroke-linejoin:round;stroke-miterlimit:4;stroke-dasharray:none;stroke-dashoffset:0;stroke-opacity:1;color-rendering:auto;image-rendering:auto;shape-rendering:auto;text-rendering:auto;enable-background:accumulate"
           inkscape:connector-curvature="0" />
        <path
           id="path4447"
           d="m 4.4980469,295.14844 v 0.26367 h 3.3515625 v -0.26367 z"
           style="color:#000000;font-style:normal;font-variant:normal;font-weight:normal;font-stretch:normal;font-size:medium;line-height:normal;font-family:sans-serif;text-indent:0;text-align:start;text-decoration:none;text-decoration-line:none;text-decoration-style:solid;text-decoration-color:#000000;letter-spacing:normal;word-spacing:normal;text-transform:none;writing-mode:lr-tb;direction:ltr;baseline-shift:baseline;text-anchor:start;white-space:normal;clip-rule:nonzero;display:inline;overflow:visible;visibility:visible;opacity:1;isolation:auto;mix-blend-mode:normal;color-interpolation:sRGB;color-interpolation-filters:linearRGB;solid-color:#000000;solid-opacity:1;fill:#19647e;fill-opacity:1;fill-rule:evenodd;stroke:none;stroke-width:0.26458332px;stroke-linecap:butt;stroke-linejoin:miter;stroke-miterlimit:4;stroke-dasharray:none;stroke-dashoffset:0;stroke-opacity:1;color-rendering:auto;image-rendering:auto;shape-rendering:auto;text-rendering:auto;enable-background:accumulate"
           inkscape:connector-curvature="0" />
        <path
           id="path4449"
           d="m 1.2363281,291.44336 a 0.13230487,0.13230487 0 0 0 -0.1328125,0.13281 v 0.61328 L 0.55273438,293 a 0.13230487,0.13230487 0 0 0 -0.0214844,0.0742 l -0.001953,3.5293 a 0.13230487,0.13230487 0 0 0 0.1328125,0.13086 H 4.0996095 a 0.13230487,0.13230487 0 0 0 0.1328125,-0.13282 v -3.51562 a 0.13230487,0.13230487 0 0 0 -0.021484,-0.0742 l -0.5507813,-0.82227 v -0.61328 a 0.13230487,0.13230487 0 0 0 -0.1308593,-0.13281 z m 0.1308594,0.26562 h 2.0292969 v 0.51954 a 0.13230487,0.13230487 0 0 0 0.021484,0.0742 l 0.5507812,0.82227 v 3.34375 l -3.17578125,0.002 0.001953,-3.35742 0.55078125,-0.81055 a 0.13230487,0.13230487 0 0 0 0.021484,-0.0742 v -0.51954 z"
           style="color:#000000;font-style:normal;font-variant:normal;font-weight:normal;font-stretch:normal;font-size:medium;line-height:normal;font-family:sans-serif;text-indent:0;text-align:start;text-decoration:none;text-decoration-line:none;text-decoration-style:solid;text-decoration-color:#000000;letter-spacing:normal;word-spacing:normal;text-transform:none;writing-mode:lr-tb;direction:ltr;baseline-shift:baseline;text-anchor:start;white-space:normal;clip-rule:nonzero;display:inline;overflow:visible;visibility:visible;opacity:1;isolation:auto;mix-blend-mode:normal;color-interpolation:sRGB;color-interpolation-filters:linearRGB;solid-color:#000000;solid-opacity:1;fill:#19647e;fill-opacity:1;fill-rule:evenodd;stroke:none;stroke-width:0.26458329;stroke-linecap:round;stroke-linejoin:round;stroke-miterlimit:4;stroke-dasharray:none;stroke-dashoffset:0;stroke-opacity:1;color-rendering:auto;image-rendering:auto;shape-rendering:auto;text-rendering:auto;enable-background:accumulate"
           inkscape:connector-curvature="0" />
        <path
           id="path4451"
           d="m 2.9003906,294.22266 a 0.13230489,0.13230489 0 0 0 -0.1035156,0.0625 c 0,0 -0.068482,0.11407 -0.1367188,0.24414 -0.034118,0.065 -0.068471,0.13442 -0.095703,0.19922 -0.027232,0.0648 -0.050781,0.11547 -0.050781,0.19336 0,0.20867 0.1890894,0.35742 0.3964843,0.35742 0.207404,0 0.3964844,-0.14875 0.3964844,-0.35742 0,-0.0779 -0.023548,-0.12856 -0.050781,-0.19336 -0.027234,-0.0648 -0.061583,-0.13419 -0.095703,-0.19922 -0.068241,-0.13007 -0.1367187,-0.24414 -0.1367187,-0.24414 a 0.13230489,0.13230489 0 0 0 -0.1230476,-0.0625 z m 0.00977,0.40234 c 0.00754,0.014 0.00799,0.0128 0.015625,0.0273 0.032027,0.0611 0.06356,0.12449 0.085938,0.17774 0.022377,0.0532 0.03125,0.10706 0.03125,0.0918 0,0.0419 -0.047945,0.0937 -0.1328126,0.0937 -0.084845,0 -0.1328125,-0.0519 -0.1328124,-0.0937 0,0.0153 0.00887,-0.0386 0.03125,-0.0918 0.022376,-0.0532 0.053912,-0.11669 0.085937,-0.17774 0.00764,-0.0146 0.00808,-0.0133 0.015625,-0.0273 z"
           style="color:#000000;font-style:normal;font-variant:normal;font-weight:normal;font-stretch:normal;font-size:medium;line-height:normal;font-family:sans-serif;text-indent:0;text-align:start;text-decoration:none;text-decoration-line:none;text-decoration-style:solid;text-decoration-color:#000000;letter-spacing:normal;word-spacing:normal;text-transform:none;writing-mode:lr-tb;direction:ltr;baseline-shift:baseline;text-anchor:start;white-space:normal;clip-rule:nonzero;display:inline;overflow:visible;visibility:visible;opacity:1;isolation:auto;mix-blend-mode:normal;color-interpolation:sRGB;color-interpolation-filters:linearRGB;solid-color:#000000;solid-opacity:1;fill:#19647e;fill-opacity:1;fill-rule:nonzero;stroke:none;stroke-width:0.26458332;stroke-linecap:round;stroke-linejoin:round;stroke-miterlimit:4;stroke-dasharray:none;stroke-dashoffset:0;stroke-opacity:1;color-rendering:auto;image-rendering:auto;shape-rendering:auto;text-rendering:auto;enable-background:accumulate"
           inkscape:connector-curvature="0" />
        <path
           id="path4453"
           d="m 1.2460938,292.16992 a 0.13230487,0.13230487 0 0 0 -0.1015626,0.20313 l 0.5097657,0.82812 v 3.33594 a 0.13230487,0.13230487 0 1 0 0.2636719,0 v -3.37305 a 0.13230487,0.13230487 0 0 0 -0.019531,-0.0703 l -0.5292969,-0.85937 a 0.13230487,0.13230487 0 0 0 -0.1230468,-0.0645 z"
           style="color:#000000;font-style:normal;font-variant:normal;font-weight:normal;font-stretch:normal;font-size:medium;line-height:normal;font-family:sans-serif;text-indent:0;text-align:start;text-decoration:none;text-decoration-line:none;text-decoration-style:solid;text-decoration-color:#000000;letter-spacing:normal;word-spacing:normal;text-transform:none;writing-mode:lr-tb;direction:ltr;baseline-shift:baseline;text-anchor:start;white-space:normal;clip-rule:nonzero;display:inline;overflow:visible;visibility:visible;opacity:1;isolation:auto;mix-blend-mode:normal;color-interpolation:sRGB;color-interpolation-filters:linearRGB;solid-color:#000000;solid-opacity:1;fill:#19647e;fill-opacity:1;fill-rule:evenodd;stroke:none;stroke-width:0.26458329;stroke-linecap:round;stroke-linejoin:round;stroke-miterlimit:4;stroke-dasharray:none;stroke-dashoffset:0;stroke-opacity:1;color-rendering:auto;image-rendering:auto;shape-rendering:auto;text-rendering:auto;enable-background:accumulate"
           inkscape:connector-curvature="0" />
        <path
           id="path4455"
           d="m 1.0585938,293.03125 v 0.26367 h 3.0429687 v -0.26367 z"
           style="color:#000000;font-style:normal;font-variant:normal;font-weight:normal;font-stretch:normal;font-size:medium;line-height:normal;font-family:sans-serif;text-indent:0;text-align:start;text-decoration:none;text-decoration-line:none;text-decoration-style:solid;text-decoration-color:#000000;letter-spacing:normal;word-spacing:normal;text-transform:none;writing-mode:lr-tb;direction:ltr;baseline-shift:baseline;text-anchor:start;white-space:normal;clip-rule:nonzero;display:inline;overflow:visible;visibility:visible;opacity:1;isolation:auto;mix-blend-mode:normal;color-interpolation:sRGB;color-interpolation-filters:linearRGB;solid-color:#000000;solid-opacity:1;fill:#19647e;fill-opacity:1;fill-rule:evenodd;stroke:none;stroke-width:0.26458329;stroke-linecap:butt;stroke-linejoin:round;stroke-miterlimit:4;stroke-dasharray:none;stroke-dashoffset:0;stroke-opacity:1;color-rendering:auto;image-rendering:auto;shape-rendering:auto;text-rendering:auto;enable-background:accumulate"
           inkscape:connector-curvature="0" />
        <path
           id="path4457"
           d="m 1.7207031,292.10547 v 0.26367 h 1.8515625 v -0.26367 z"
           style="color:#000000;font-style:normal;font-variant:normal;font-weight:normal;font-stretch:normal;font-size:medium;line-height:normal;font-family:sans-serif;text-indent:0;text-align:start;text-decoration:none;text-decoration-line:none;text-decoration-style:solid;text-decoration-color:#000000;letter-spacing:normal;word-spacing:normal;text-transform:none;writing-mode:lr-tb;direction:ltr;baseline-shift:baseline;text-anchor:start;white-space:normal;clip-rule:nonzero;display:inline;overflow:visible;visibility:visible;opacity:1;isolation:auto;mix-blend-mode:normal;color-interpolation:sRGB;color-interpolation-filters:linearRGB;solid-color:#000000;solid-opacity:1;fill:#19647e;fill-opacity:1;fill-rule:evenodd;stroke:none;stroke-width:0.26458329;stroke-linecap:butt;stroke-linejoin:round;stroke-miterlimit:4;stroke-dasharray:none;stroke-dashoffset:0;stroke-opacity:1;color-rendering:auto;image-rendering:auto;shape-rendering:auto;text-rendering:auto;enable-background:accumulate"
           inkscape:connector-curvature="0" />
        <path
           id="path4459"
           style="color:#000000;font-style:normal;font-variant:normal;font-weight:normal;font-stretch:normal;font-size:medium;line-height:normal;font-family:sans-serif;text-indent:0;text-align:start;text-decoration:none;text-decoration-line:none;text-decoration-style:solid;text-decoration-color:#000000;letter-spacing:normal;word-spacing:normal;text-transform:none;writing-mode:lr-tb;direction:ltr;baseline-shift:baseline;text-anchor:start;white-space:normal;clip-rule:nonzero;display:inline;overflow:visible;visibility:visible;opacity:1;isolation:auto;mix-blend-mode:normal;color-interpolation:sRGB;color-interpolation-filters:linearRGB;solid-color:#000000;solid-opacity:1;fill:#19647e;fill-opacity:1;fill-rule:nonzero;stroke:none;stroke-width:0.54945004;stroke-linecap:round;stroke-linejoin:round;stroke-miterlimit:4;stroke-dasharray:none;stroke-dashoffset:0;stroke-opacity:1;color-rendering:auto;image-rendering:auto;shape-rendering:auto;text-rendering:auto;enable-background:accumulate"
           d="m 4.9950952,290.4293 c -0.1125989,0.12443 0.062442,0.29946 0.1868767,0.18687 l 1.6551555,-1.49698 c 0.3208947,0.37939 0.488216,0.87249 0.4470731,1.37129 -0.015169,0.17646 0.2498335,0.1985 0.2640197,0.022 0.051058,-0.61887 -0.1686889,-1.22895 -0.6018695,-1.67389 -0.04943,-0.0512 -0.1305411,-0.0542 -0.1835492,-0.007 l -1.7577288,1.58743 c -0.00337,0.003 -0.00684,0.006 -0.00997,0.01 z"
           inkscape:connector-curvature="0" />
        <path
           id="path4461"
           style="color:#000000;font-style:normal;font-variant:normal;font-weight:normal;font-stretch:normal;font-size:medium;line-height:normal;font-family:sans-serif;text-indent:0;text-align:start;text-decoration:none;text-decoration-line:none;text-decoration-style:solid;text-decoration-color:#000000;letter-spacing:normal;word-spacing:normal;text-transform:none;writing-mode:lr-tb;direction:ltr;baseline-shift:baseline;text-anchor:start;white-space:normal;clip-rule:nonzero;display:inline;overflow:visible;visibility:visible;opacity:1;isolation:auto;mix-blend-mode:normal;color-interpolation:sRGB;color-interpolation-filters:linearRGB;solid-color:#000000;solid-opacity:1;fill:#19647e;fill-opacity:1;fill-rule:nonzero;stroke:none;stroke-width:0.54945004;stroke-linecap:round;stroke-linejoin:round;stroke-miterlimit:4;stroke-dasharray:none;stroke-dashoffset:0;stroke-opacity:1;color-rendering:auto;image-rendering:auto;shape-rendering:auto;text-rendering:auto;enable-background:accumulate"
           d="m 6.4561942,289.16643 a 0.13230658,0.13230319 0 0 0 -0.00193,0.18687 c 0.2816008,0.29871 0.4216236,0.70371 0.3850601,1.1126 a 0.13230658,0.13230319 0 1 0 0.26336,0.0239 c 0.043291,-0.4841 -0.1228124,-0.96444 -0.4562223,-1.31809 a 0.13230658,0.13230319 0 0 0 -0.190209,-0.005 z"
           inkscape:connector-curvature="0" />
        <path
           id="path4463"
           d="m 6.0703125,289.92188 a 0.13230489,0.13230489 0 0 0 -0.078125,0.0391 l -0.0625,0.0625 a 0.13258252,0.13258252 0 1 0 0.1875,0.1875 l 0.0625,-0.0625 a 0.13230489,0.13230489 0 0 0 -0.109375,-0.22656 z"
           style="color:#000000;font-style:normal;font-variant:normal;font-weight:normal;font-stretch:normal;font-size:medium;line-height:normal;font-family:sans-serif;text-indent:0;text-align:start;text-decoration:none;text-decoration-line:none;text-decoration-style:solid;text-decoration-color:#000000;letter-spacing:normal;word-spacing:normal;text-transform:none;writing-mode:lr-tb;direction:ltr;baseline-shift:baseline;text-anchor:start;white-space:normal;clip-rule:nonzero;display:inline;overflow:visible;visibility:visible;opacity:1;isolation:auto;mix-blend-mode:normal;color-interpolation:sRGB;color-interpolation-filters:linearRGB;solid-color:#000000;solid-opacity:1;fill:#19647e;fill-opacity:1;fill-rule:evenodd;stroke:none;stroke-width:0.26458332;stroke-linecap:round;stroke-linejoin:round;stroke-miterlimit:4;stroke-dasharray:none;stroke-dashoffset:0;stroke-opacity:1;color-rendering:auto;image-rendering:auto;shape-rendering:auto;text-rendering:auto;enable-background:accumulate"
           inkscape:connector-curvature="0" />
        <path
           id="path4465"
           d="m 6.4824219,289.76953 a 0.13230489,0.13230489 0 0 0 -0.091797,0.22852 l 0.0625,0.0625 a 0.13258252,0.13258252 0 1 0 0.1875,-0.1875 l -0.0625,-0.0625 a 0.13230489,0.13230489 0 0 0 -0.095703,-0.041 z"
           style="color:#000000;font-style:normal;font-variant:normal;font-weight:normal;font-stretch:normal;font-size:medium;line-height:normal;font-family:sans-serif;text-indent:0;text-align:start;text-decoration:none;text-decoration-line:none;text-decoration-style:solid;text-decoration-color:#000000;letter-spacing:normal;word-spacing:normal;text-transform:none;writing-mode:lr-tb;direction:ltr;baseline-shift:baseline;text-anchor:start;white-space:normal;clip-rule:nonzero;display:inline;overflow:visible;visibility:visible;opacity:1;isolation:auto;mix-blend-mode:normal;color-interpolation:sRGB;color-interpolation-filters:linearRGB;solid-color:#000000;solid-opacity:1;fill:#19647e;fill-opacity:1;fill-rule:evenodd;stroke:none;stroke-width:0.26458332;stroke-linecap:round;stroke-linejoin:round;stroke-miterlimit:4;stroke-dasharray:none;stroke-dashoffset:0;stroke-opacity:1;color-rendering:auto;image-rendering:auto;shape-rendering:auto;text-rendering:auto;enable-background:accumulate"
           inkscape:connector-curvature="0" />
        <path
           id="path4467"
           d="m 6.2753906,290.24219 a 0.13230489,0.13230489 0 0 0 -0.09375,0.22851 l 0.0625,0.0605 a 0.13230489,0.13230489 0 1 0 0.1875,-0.18555 l -0.0625,-0.0625 a 0.13230489,0.13230489 0 0 0 -0.09375,-0.041 z"
           style="color:#000000;font-style:normal;font-variant:normal;font-weight:normal;font-stretch:normal;font-size:medium;line-height:normal;font-family:sans-serif;text-indent:0;text-align:start;text-decoration:none;text-decoration-line:none;text-decoration-style:solid;text-decoration-color:#000000;letter-spacing:normal;word-spacing:normal;text-transform:none;writing-mode:lr-tb;direction:ltr;baseline-shift:baseline;text-anchor:start;white-space:normal;clip-rule:nonzero;display:inline;overflow:visible;visibility:visible;opacity:1;isolation:auto;mix-blend-mode:normal;color-interpolation:sRGB;color-interpolation-filters:linearRGB;solid-color:#000000;solid-opacity:1;fill:#19647e;fill-opacity:1;fill-rule:evenodd;stroke:none;stroke-width:0.26458332;stroke-linecap:round;stroke-linejoin:round;stroke-miterlimit:4;stroke-dasharray:none;stroke-dashoffset:0;stroke-opacity:1;color-rendering:auto;image-rendering:auto;shape-rendering:auto;text-rendering:auto;enable-background:accumulate"
           inkscape:connector-curvature="0" />
        <path
           id="path4469"
           d="m 4.15625,289.46094 c -0.1346034,0.0558 -0.2203336,0.16722 -0.2773438,0.27929 -0.05701,0.11208 -0.091375,0.23122 -0.1191406,0.33008 -0.048245,0.17181 -0.054687,0.24686 -0.054687,0.44727 h 0.2636719 c 0,-0.19646 8.519e-4,-0.21306 0.046875,-0.37696 0.027296,-0.0972 0.058599,-0.20063 0.099609,-0.28124 0.041011,-0.0806 0.087827,-0.1316 0.1425781,-0.1543 0.012169,-0.005 0.1314733,0.003 0.2324219,0.0391 0.1009486,0.0364 0.1835937,0.082 0.1835937,0.082 l 0.0625,-0.11719 0.0625,0.11719 c 0,0 0.084593,-0.0457 0.1855469,-0.082 0.1009542,-0.0364 0.2202428,-0.0441 0.2324219,-0.0391 0.05477,0.0227 0.1015672,0.0737 0.1425781,0.1543 0.041011,0.0806 0.070361,0.18405 0.097656,0.28124 l 0.2558594,-0.0703 c -0.027766,-0.0989 -0.06213,-0.21801 -0.1191406,-0.33008 -0.05701,-0.11206 -0.1408064,-0.22347 -0.2753906,-0.27929 -0.1555551,-0.0645 -0.3015064,-0.009 -0.4238282,0.0351 -0.087633,0.0316 -0.1226419,0.0504 -0.1582031,0.0684 -0.03569,-0.018 -0.068875,-0.0369 -0.15625,-0.0684 -0.122325,-0.044 -0.2682634,-0.0997 -0.4238281,-0.0351 z"
           style="color:#000000;font-style:normal;font-variant:normal;font-weight:normal;font-stretch:normal;font-size:medium;line-height:normal;font-family:sans-serif;text-indent:0;text-align:start;text-decoration:none;text-decoration-line:none;text-decoration-style:solid;text-decoration-color:#000000;letter-spacing:normal;word-spacing:normal;text-transform:none;writing-mode:lr-tb;direction:ltr;baseline-shift:baseline;text-anchor:start;white-space:normal;clip-rule:nonzero;display:inline;overflow:visible;visibility:visible;opacity:1;isolation:auto;mix-blend-mode:normal;color-interpolation:sRGB;color-interpolation-filters:linearRGB;solid-color:#000000;solid-opacity:1;fill:#19647e;fill-opacity:1;fill-rule:evenodd;stroke:none;stroke-width:0.26458332;stroke-linecap:butt;stroke-linejoin:miter;stroke-miterlimit:4;stroke-dasharray:none;stroke-dashoffset:0;stroke-opacity:1;color-rendering:auto;image-rendering:auto;shape-rendering:auto;text-rendering:auto;enable-background:accumulate"
           inkscape:connector-curvature="0" />
        <path
           id="path4471"
           d="m 4.8183594,289.06055 a 0.13230489,0.13230489 0 0 0 -0.109375,0.0781 c 0,0 -0.092123,0.18169 -0.1210938,0.32617 -0.028528,0.14227 -0.013672,0.3418 -0.013672,0.3418 a 0.13230489,0.13230489 0 1 0 0.2636718,-0.01 c 0,0 -0.00233,-0.21896 0.00977,-0.2793 C 4.8602038,289.455 4.9492188,289.25 4.9492188,289.25 a 0.13230489,0.13230489 0 0 0 -0.1308594,-0.18945 z"
           style="color:#000000;font-style:normal;font-variant:normal;font-weight:normal;font-stretch:normal;font-size:medium;line-height:normal;font-family:sans-serif;text-indent:0;text-align:start;text-decoration:none;text-decoration-line:none;text-decoration-style:solid;text-decoration-color:#000000;letter-spacing:normal;word-spacing:normal;text-transform:none;writing-mode:lr-tb;direction:ltr;baseline-shift:baseline;text-anchor:start;white-space:normal;clip-rule:nonzero;display:inline;overflow:visible;visibility:visible;opacity:1;isolation:auto;mix-blend-mode:normal;color-interpolation:sRGB;color-interpolation-filters:linearRGB;solid-color:#000000;solid-opacity:1;fill:#19647e;fill-opacity:1;fill-rule:evenodd;stroke:none;stroke-width:0.26458332;stroke-linecap:round;stroke-linejoin:round;stroke-miterlimit:4;stroke-dasharray:none;stroke-dashoffset:0;stroke-opacity:1;color-rendering:auto;image-rendering:auto;shape-rendering:auto;text-rendering:auto;enable-background:accumulate"
           inkscape:connector-curvature="0" />
      </g>
    </g>
  </g>
</svg>
