<svg xmlns="http://www.w3.org/2000/svg" xmlns:xlink="http://www.w3.org/1999/xlink" version="1.1" x="0px" y="0px" viewBox="0 0 100 125" enable-background="new 0 0 100 100" xml:space="preserve"><g><g><g><path d="M30.424,34.611l-0.416-3.731l-9.207-9.208l0.064,0.403l0.566,1.881l-1.076,1.076l1.342,0.267l5.103,15.282     C28.812,37.184,30.424,34.611,30.424,34.611z"/></g></g><g><g><path d="M34.064,30.971L30.489,30.4l-9.207-9.208l0.248,0.22l1.725,0.722l1.076-1.075l0.266,1.342l15.36,5.024     C36.559,29.437,34.064,30.971,34.064,30.971z"/></g></g></g><g><g><g><path d="M25.276,53.152L22.344,51H9.323l0.138,0.047L11,51.785v1.521l1.329-0.762l14.51,7.295     C25.859,56.016,25.276,53.152,25.276,53.152z"/></g></g><g><g><path d="M25.276,47.844L22.345,50H9.323l0.138-0.052L11,49.208v-1.521l1.329,0.761l14.51-7.293     C25.859,44.979,25.276,47.844,25.276,47.844z"/></g></g></g><g><g><g><path d="M34.747,69.711l-3.596,0.553l-9.207,9.206l0.131-0.064l1.609-0.565l1.076,1.075l0.4-1.478l15.419-5.103     C37.183,71.324,34.747,69.711,34.747,69.711z"/></g></g><g><g><path d="M30.993,65.957l-0.549,3.598l-9.207,9.208l0.061-0.134l0.565-1.611l-1.075-1.076l1.477-0.4l5.104-15.418     C29.38,63.52,30.993,65.957,30.993,65.957z"/></g></g></g><g><g><g><path d="M53.15,74.723L51,77.656v13.021l0.046-0.138L51.784,89h1.521l-0.762-1.328l7.295-14.511     C56.015,74.143,53.15,74.723,53.15,74.723z"/></g></g><g><g><path d="M47.843,74.723L50,77.655v13.021l-0.052-0.138L49.208,89h-1.521l0.762-1.328l-7.293-14.51     C44.979,74.141,47.843,74.723,47.843,74.723z"/></g></g></g><g><g><g><path d="M69.709,65.254l0.554,3.595l9.207,9.207l-0.064-0.13l-0.566-1.61l1.076-1.075l-1.479-0.4l-5.102-15.42     C71.324,62.818,69.709,65.254,69.709,65.254z"/></g></g><g><g><path d="M65.956,69.006l3.6,0.549l9.207,9.208l-0.134-0.061l-1.612-0.565l-1.075,1.076l-0.4-1.478l-15.417-5.103     C63.52,70.62,65.956,69.006,65.956,69.006z"/></g></g></g><g><g><g><path d="M74.723,46.85L77.655,49h13.021l-0.138-0.046L89,48.216l0.001-1.521l-1.329,0.762l-14.511-7.296     C74.143,43.985,74.723,46.85,74.723,46.85z"/></g></g><g><g><path d="M74.722,52.156L77.655,50h13.021l-0.138,0.052L89,50.792v1.521l-1.328-0.762l-14.509,7.294     C74.14,55.021,74.722,52.156,74.722,52.156z"/></g></g></g><g><g><g><path d="M65.254,30.291l3.595-0.553l9.207-9.208l-0.13,0.064l-1.61,0.566l-1.075-1.076l-0.4,1.479l-15.42,5.102     C62.818,28.676,65.254,30.291,65.254,30.291z"/></g></g><g><g><path d="M69.005,34.043l0.551-3.599l9.207-9.208l-0.061,0.134l-0.564,1.612l1.075,1.076l-1.478,0.4l-5.102,15.417     C70.62,36.481,69.005,34.043,69.005,34.043z"/></g></g></g><g><g><g><path d="M46.849,25.277L49,22.344V9.323L48.954,9.46L48.216,11l-1.521-0.001l0.762,1.329L40.16,26.839     C43.985,25.857,46.849,25.277,46.849,25.277z"/></g></g><g><g><path d="M52.155,25.278L50,22.345V9.323l0.052,0.138L50.792,11h1.521l-0.762,1.328l7.294,14.509     C55.021,25.86,52.155,25.278,52.155,25.278z"/></g></g></g><text x="0" y="115" fill="#000000" font-size="5px" font-weight="bold" font-family="'Helvetica Neue', Helvetica, Arial-Unicode, Arial, Sans-serif">Created by Alessio Capponi</text><text x="0" y="120" fill="#000000" font-size="5px" font-weight="bold" font-family="'Helvetica Neue', Helvetica, Arial-Unicode, Arial, Sans-serif">from the Noun Project</text></svg>